<svg width="19" height="24" viewBox="0 0 19 24" fill="none" xmlns="http://www.w3.org/2000/svg">
<path d="M9.49513 4.58385e-06C4.25303 0.0049933 -8.3064e-06 4.26187 8.12556e-09 9.48864C-0.000166282 13.4939 2.55205 17.0026 6.28949 18.3586L8.19436 22.4801C8.68399 23.5402 10.316 23.5402 10.8056 22.4801L12.7105 18.3586C16.448 17.0026 19.0002 13.4939 19 9.48864C19 4.25471 14.7372 -0.00510054 9.49513 4.58385e-06ZM9.50011 4.573C12.2451 4.573 14.4888 6.81605 14.4888 9.56009C14.4888 12.3041 12.2451 14.5456 9.50011 14.5456C6.75509 14.5456 4.5114 12.3041 4.5114 9.56009C4.5114 6.81605 6.75509 4.573 9.50011 4.573Z" fill="#4EB4E6"/>
</svg>
