<svg width="42" height="42" viewBox="0 0 42 42" fill="none" xmlns="http://www.w3.org/2000/svg">
<g clip-path="url(#clip0_1339_1314)">
<path d="M40.9254 11.9169C41.6088 11.2231 42 10.2864 42 9.28743C42 7.21811 40.3166 5.53467 38.2472 5.53467C37.1812 5.53467 36.1784 5.98879 35.4756 6.75808C25.8658 5.7007 16.1342 5.7007 6.52436 6.75808C5.82159 5.98879 4.81884 5.53467 3.75277 5.53467C1.68345 5.53467 0 7.2182 0 9.28743C0 10.2864 0.391207 11.2231 1.07461 11.9169C0.223535 17.9476 0.223535 24.0525 1.07461 30.0832C0.391207 30.7769 0 31.7136 0 32.7126C0 34.7819 1.68345 36.4654 3.75277 36.4654C4.81884 36.4654 5.82159 36.0112 6.52436 35.242C16.1342 36.2993 25.8658 36.2993 35.4756 35.242C36.1784 36.0112 37.1812 36.4654 38.2472 36.4654C40.3166 36.4654 42 34.7819 42 32.7126C42 31.7136 41.6088 30.7769 40.9254 30.0832C41.7765 24.0525 41.7765 17.9476 40.9254 11.9169ZM38.3912 11.5959C39.3401 17.836 39.3401 24.164 38.3912 30.4041L38.2711 31.1933L38.9429 31.6245C39.3162 31.8642 39.5391 32.2709 39.5391 32.7125C39.5391 33.4249 38.9596 34.0043 38.2472 34.0043C37.7794 34.0043 37.3468 33.7497 37.1181 33.34L36.718 32.623L35.9024 32.7172C26.0139 33.8595 15.9861 33.8595 6.09763 32.7172L5.28199 32.623L4.88193 33.34C4.65322 33.7498 4.22059 34.0043 3.75277 34.0043C3.04041 34.0043 2.46094 33.4249 2.46094 32.7125C2.46094 32.2709 2.68382 31.8642 3.05714 31.6245L3.72889 31.1933L3.60888 30.4041C2.65995 24.164 2.65995 17.836 3.60888 11.5959L3.72889 10.8067L3.05714 10.3754C2.68382 10.1358 2.46094 9.72909 2.46094 9.28743C2.46094 8.57507 3.04041 7.99561 3.75277 7.99561C4.22059 7.99561 4.65322 8.25023 4.88193 8.65998L5.28199 9.37693L6.09763 9.28276C15.9862 8.14047 26.014 8.14047 35.9024 9.28276L36.718 9.37693L37.1181 8.65998C37.3468 8.25015 37.7794 7.99561 38.2472 7.99561C38.9596 7.99561 39.5391 8.57507 39.5391 9.28743C39.5391 9.72909 39.3162 10.1358 38.9429 10.3754L38.2711 10.8067L38.3912 11.5959Z" fill="#114965"/>
<path d="M9.22192 19.7695H11.6829V22.2305H9.22192V19.7695Z" fill="#114965"/>
<path d="M30.3171 19.7695H32.7781V22.2305H30.3171V19.7695Z" fill="#114965"/>
</g>
<defs>
<clipPath id="clip0_1339_1314">
<rect width="42" height="42" fill="white"/>
</clipPath>
</defs>
</svg>
