<svg width="36" height="36" viewBox="0 0 36 36" fill="none" xmlns="http://www.w3.org/2000/svg">
<path d="M32.8359 8.4375H31.7812V3.16406C31.7812 1.4194 30.3619 0 28.6172 0H4.21875V4.21875H3.16406C1.4194 4.21875 0 5.63815 0 7.38281V28.6172C0 30.3619 1.4194 31.7812 3.16406 31.7812H4.21875V36H32.8359C34.5806 36 36 34.5806 36 32.8359V11.6016C36 9.8569 34.5806 8.4375 32.8359 8.4375ZM29.6719 3.16406V21.4158C29.3418 21.2987 28.987 21.2344 28.6172 21.2344H14.7656V2.10938H28.6172C29.1987 2.10938 29.6719 2.58251 29.6719 3.16406ZM10.5469 21.2344V2.10938H12.6562V21.2344H10.5469ZM6.32812 2.10938H8.4375V21.2344H6.32812V2.10938ZM3.16406 6.32812H4.21875V23.3438H28.6172C29.1987 23.3438 29.6719 23.8169 29.6719 24.3984C29.6719 24.98 29.1987 25.4531 28.6172 25.4531H3.16406C2.79429 25.4531 2.43949 25.5175 2.10938 25.6345V7.38281C2.10938 6.80126 2.58251 6.32812 3.16406 6.32812ZM3.16406 29.6719C2.58251 29.6719 2.10938 29.1987 2.10938 28.6172C2.10938 28.0356 2.58251 27.5625 3.16406 27.5625H28.6172C30.3619 27.5625 31.7812 26.1431 31.7812 24.3984V10.5469H32.8359C33.4175 10.5469 33.8906 11.02 33.8906 11.6016V29.8533C33.5605 29.7362 33.2057 29.6719 32.8359 29.6719H3.16406ZM32.8359 33.8906H6.32812V31.7812H32.8359C33.4175 31.7812 33.8906 32.2544 33.8906 32.8359C33.8906 33.4175 33.4175 33.8906 32.8359 33.8906Z" fill="#114965"/>
</svg>
