<svg width="34" height="34" viewBox="0 0 34 34" fill="none" xmlns="http://www.w3.org/2000/svg">
<path d="M3.98438 0H30.0156C32.2126 0 34 1.78739 34 3.98438V27.0273C34 30.8721 30.8721 34 27.0273 34H2.98828C1.34054 34 0 32.6595 0 31.0117C0 30.2469 0.289066 29.5487 0.76334 29.0195C0.289131 28.4904 0 27.7921 0 27.0273C0 26.2625 0.289066 25.5643 0.76334 25.0352C0.289131 24.506 0 23.8078 0 23.043V3.98438C0 1.78739 1.78739 0 3.98438 0ZM11.9531 5.1514L5.1514 11.9531H11.9531V5.1514ZM1.99219 3.98438V12.295L12.295 1.99219H3.98438C2.88588 1.99219 1.99219 2.88588 1.99219 3.98438ZM1.99219 27.0273C1.99219 27.5766 2.43904 28.0234 2.98828 28.0234H27.0273C27.5766 28.0234 28.0234 27.5766 28.0234 27.0273C28.0234 26.4781 27.5766 26.0312 27.0273 26.0312H2.98828C2.43904 26.0312 1.99219 26.4781 1.99219 27.0273ZM2.98828 24.0391H27.0273C28.6751 24.0391 30.0156 25.3796 30.0156 27.0273C30.0156 28.6751 28.6751 30.0156 27.0273 30.0156H2.98828C2.43904 30.0156 1.99219 30.4625 1.99219 31.0117C1.99219 31.561 2.43904 32.0078 2.98828 32.0078H27.0273C29.7736 32.0078 32.0078 29.7736 32.0078 27.0273C32.0078 24.2811 29.7736 22.0469 27.0273 22.0469H2.98828C2.43904 22.0469 1.99219 22.4937 1.99219 23.043C1.99219 23.5922 2.43904 24.0391 2.98828 24.0391ZM1.99219 20.226C2.30396 20.1154 2.63912 20.0547 2.98828 20.0547H27.0273C28.9766 20.0547 30.7412 20.8591 32.0078 22.1529V3.98438C32.0078 2.88588 31.1141 1.99219 30.0156 1.99219H15.9375C14.839 1.99219 13.9453 2.88588 13.9453 3.98438V13.9453H3.98438C2.88588 13.9453 1.99219 14.839 1.99219 15.9375V20.226Z" fill="#114965"/>
</svg>
