<svg width="183" height="183" viewBox="0 0 183 183" fill="none" xmlns="http://www.w3.org/2000/svg">
<path d="M125.163 155.414C160.716 136.566 174.258 92.4646 155.41 56.9115C136.562 21.3583 92.4607 7.81624 56.9076 26.6644C21.3544 45.5125 7.81234 89.6135 26.6605 125.167C45.5086 160.72 89.6096 174.262 125.163 155.414Z" fill="#FFD05D"/>
<path d="M145.727 42.7822C150.133 58.6702 149.021 75.5829 142.573 90.7572C136.124 105.931 124.72 118.47 110.224 126.325C95.7274 134.18 78.9957 136.887 62.7622 134.003C46.5286 131.12 31.7529 122.816 20.8488 110.449C23.7814 121.002 29.0554 130.758 36.2787 138.992C43.5019 147.225 52.4886 153.724 62.5701 158.006C72.6517 162.287 83.5687 164.24 94.5093 163.72C105.45 163.2 116.133 160.22 125.763 155.002C135.393 149.784 143.722 142.462 150.132 133.58C156.542 124.699 160.867 114.486 162.785 103.703C164.704 92.9191 164.166 81.8417 161.213 71.2945C158.259 60.7472 152.966 51.0015 145.727 42.7822Z" fill="#FDC453"/>
<path d="M28.5921 79.9032C32.7379 66.3964 41.0093 54.5269 52.2452 45.9609C63.4812 37.3948 77.1175 32.5624 91.24 32.1418C105.363 31.7212 119.262 35.7337 130.988 43.6159C142.714 51.4981 151.677 62.8543 156.619 76.0905C154.568 67.0529 150.681 58.5332 145.201 51.0598C139.72 43.5865 132.763 37.319 124.76 32.646C116.757 27.973 107.879 24.9943 98.6766 23.8947C89.4745 22.795 80.1447 23.5979 71.2658 26.2534C62.387 28.9089 54.1484 33.3605 47.0613 39.332C39.9741 45.3035 34.1895 52.6675 30.0664 60.9673C25.9432 69.267 23.5694 78.3255 23.0922 87.5807C22.6149 96.8359 24.0445 106.09 27.2922 114.77C24.6535 103.236 25.1018 91.2093 28.5921 79.9032Z" fill="#FFD77F"/>
<path d="M60.2888 89.4305C60.0224 88.948 59.5986 88.5714 59.0881 88.3635C58.5776 88.1555 58.0113 88.1288 57.4835 88.2878C56.9557 88.4468 56.4984 88.7819 56.1877 89.2372C55.877 89.6925 55.7317 90.2405 55.7761 90.7899C56.3747 98.0002 59.1016 104.87 63.611 110.528C68.1204 116.186 74.2089 120.377 81.104 122.569C87.999 124.761 95.3899 124.855 102.339 122.84C109.287 120.825 115.481 116.791 120.133 111.249C120.483 110.824 120.675 110.292 120.679 109.742C120.683 109.191 120.498 108.656 120.154 108.226C119.811 107.796 119.33 107.497 118.793 107.379C118.255 107.261 117.693 107.331 117.201 107.577C103.979 114.354 78.0232 121.773 60.2888 89.4305Z" fill="#5E4939"/>
<path d="M113.693 81.3201C113.916 83.9852 114.925 86.524 116.593 88.6149C118.26 90.7058 120.511 92.2546 123.06 93.065C125.608 93.8754 128.34 93.9109 130.909 93.1669C133.478 92.423 135.768 90.9332 137.489 88.8863C137.811 88.5024 137.99 88.019 137.996 87.5181C138.002 87.0171 137.835 86.5295 137.522 86.1378C137.21 85.7462 136.772 85.4745 136.282 85.369C135.793 85.2635 135.281 85.3306 134.836 85.5589C129.819 88.1227 122.792 89.2554 117.739 80.0854C117.469 79.5877 117.016 79.2144 116.475 79.0448C116.061 78.9212 115.619 78.9223 115.205 79.048C114.73 79.1954 114.321 79.5018 114.045 79.9156C113.77 80.3294 113.646 80.8254 113.693 81.3201Z" fill="#303030"/>
<path d="M53.8473 62.9433C54.0683 65.6084 55.076 68.1478 56.7427 70.2392C58.4093 72.3307 60.6597 73.8799 63.2082 74.6902C65.7568 75.5006 68.4886 75.5356 71.0571 74.7908C73.6255 74.046 75.9149 72.555 77.6345 70.5069C77.9518 70.1231 78.1275 69.6419 78.1322 69.144C78.1368 68.646 77.9702 68.1616 77.6602 67.7719C77.3501 67.3822 76.9156 67.1109 76.4293 67.0035C75.9431 66.8962 75.4347 66.9592 74.9894 67.1821C69.9727 69.7458 62.9372 70.876 57.8925 61.7086C57.6226 61.2108 57.1696 60.8376 56.6294 60.668C56.2147 60.5443 55.7727 60.5455 55.3587 60.6712C54.8831 60.8172 54.4728 61.1232 54.1973 61.5374C53.9218 61.9515 53.7981 62.4483 53.8473 62.9433Z" fill="#303030"/>
<path d="M33.1186 97.1645C39.8337 99.2265 46.949 95.4544 49.011 88.7393C51.073 82.0242 47.3009 74.9089 40.5858 72.8469C33.8706 70.7849 26.7554 74.557 24.6934 81.2721C22.6314 87.9872 26.4034 95.1025 33.1186 97.1645Z" fill="#F5A6AC"/>
<path d="M135.529 128.612C142.244 130.674 149.359 126.902 151.421 120.187C153.483 113.471 149.711 106.356 142.996 104.294C136.281 102.232 129.166 106.004 127.103 112.719C125.041 119.434 128.814 126.55 135.529 128.612Z" fill="#F5A6AC"/>
</svg>
