<svg width="149" height="149" viewBox="0 0 149 149" fill="none" xmlns="http://www.w3.org/2000/svg">
<path d="M127.126 102.177C142.43 73.095 131.26 37.1134 102.177 21.8101C73.095 6.50673 37.1134 17.6767 21.8101 46.759C6.50676 75.8412 17.6768 111.823 46.759 127.126C75.8412 142.429 111.823 131.259 127.126 102.177Z" fill="#F94343"/>
<path d="M89.1407 16.7379C99.4277 25.4259 106.464 37.3457 109.101 50.5499C111.738 63.7542 109.819 77.4623 103.657 89.4348C97.4956 101.407 87.4561 110.936 75.1786 116.465C62.9012 121.994 49.1116 123.196 36.0628 119.875C42.8995 125.643 50.9487 129.795 59.6117 132.023C68.2747 134.251 77.3285 134.497 86.0998 132.744C94.8711 130.99 103.134 127.281 110.274 121.893C117.415 116.505 123.248 109.577 127.341 101.624C131.434 93.6701 133.682 84.8961 133.916 75.9543C134.151 67.0125 132.366 58.1328 128.695 49.9759C125.024 41.8189 119.562 34.5945 112.714 28.8399C105.865 23.0854 97.808 18.9488 89.1407 16.7379Z" fill="#E53939"/>
<path d="M27.2224 95.7061C23.8002 84.6868 23.9146 72.8725 27.5495 61.9215C31.1845 50.9705 38.1575 41.4327 47.4897 34.6469C56.8219 27.8611 68.0448 24.1681 79.583 24.0862C91.1212 24.0042 102.395 27.5376 111.823 34.1901C106.278 29.0386 99.7345 25.0812 92.597 22.5636C85.4596 20.0459 77.881 19.0217 70.3313 19.5544C62.7816 20.0871 55.4219 22.1653 48.7088 25.6603C41.9956 29.1552 36.0721 33.9922 31.3058 39.8713C26.5395 45.7504 23.032 52.5461 21.0009 59.837C18.9698 67.1278 18.4585 74.7582 19.4986 82.2548C20.5387 89.7514 23.1081 96.9544 27.0473 103.417C30.9866 109.879 36.2117 115.464 42.3985 119.823C35.3081 113.258 30.0735 104.939 27.2224 95.7061Z" fill="#F76363"/>
<path d="M105.849 57.4682C105.832 57.4149 105.818 57.3682 105.801 57.3149C102.697 47.3146 92.6304 40.4112 81.7634 43.7847C73.0965 46.4752 70.0499 54.226 70.155 60.5451C66.6369 55.2635 59.7095 50.631 51.0959 53.305C40.229 56.6785 35.8437 68.0755 38.9461 78.0691C38.9627 78.1225 38.9771 78.1691 38.9937 78.2225C39.6105 80.4211 46.5375 102.523 85.5613 110.173C113.399 81.7668 106.586 59.6296 105.849 57.4682Z" fill="white"/>
</svg>
