<svg width="183" height="183" viewBox="0 0 183 183" fill="none" xmlns="http://www.w3.org/2000/svg">
<path d="M156.245 124.156C174.277 88.4028 159.911 44.8013 124.158 26.7692C88.4051 8.73717 44.8036 23.1029 26.7715 58.856C8.7394 94.6091 23.1051 138.211 58.8583 156.243C94.6114 174.275 138.213 159.909 156.245 124.156Z" fill="#FFD05D"/>
<path d="M146.32 43.9362C150.573 59.782 149.328 76.602 142.786 91.6483C136.244 106.695 124.794 119.078 110.304 126.775C95.8148 134.472 79.1434 137.027 63.0138 134.024C46.8841 131.021 32.2496 122.637 21.5012 110.241C24.3324 120.766 29.5001 130.517 36.6199 138.77C43.7398 147.022 52.6285 153.563 62.6251 157.906C72.6216 162.249 83.4687 164.283 94.3596 163.856C105.25 163.428 115.905 160.551 125.53 155.438C135.156 150.325 143.505 143.107 149.956 134.322C156.407 125.537 160.795 115.411 162.792 104.696C164.79 93.9818 164.347 82.9546 161.495 72.4351C158.643 61.9156 153.456 52.1745 146.32 43.9362Z" fill="#FDC453"/>
<path d="M29.4577 79.9098C33.6942 66.5038 42.0225 54.761 53.2735 46.3297C64.5244 37.8985 78.1332 33.2021 92.1894 32.8998C106.246 32.5976 120.044 36.7046 131.647 44.6444C143.25 52.5843 152.075 63.9582 156.884 77.1698C154.917 68.1599 151.12 59.6502 145.728 52.1687C140.336 44.6871 133.465 38.3932 125.539 33.6775C117.614 28.9617 108.805 25.9246 99.6572 24.7546C90.5096 23.5847 81.2193 24.3068 72.3624 26.8761C63.5055 29.4454 55.2709 33.8073 48.1696 39.6909C41.0683 45.5746 35.2517 52.8547 31.0805 61.0795C26.9094 69.3043 24.4727 78.2985 23.9217 87.5041C23.3707 96.7097 24.717 105.93 27.8772 114.594C25.3465 103.095 25.8916 91.1314 29.4577 79.9098Z" fill="#FFD77F"/>
<path d="M57.6396 96.3577C56.1817 103.833 57.5257 111.584 61.4153 118.132C65.3049 124.68 71.4682 129.568 78.7302 131.864C85.9923 134.16 93.8452 133.703 100.792 130.581C107.739 127.458 113.294 121.889 116.398 114.934L57.6396 96.3577Z" fill="#695342"/>
<path d="M60.9929 117.383C64.7596 124.151 70.9235 129.265 78.2714 131.717C85.6194 134.169 93.6189 133.781 100.695 130.63L100.62 129.91C83.9283 114.053 61.3042 117.329 60.9929 117.383Z" fill="#F06669"/>
<path d="M88.3213 68.3847C88.3213 68.3847 88.3418 68.3198 88.3521 68.2874C90.37 61.9046 87.5958 54.5957 80.6534 52.4009C75.1384 50.6573 70.6892 53.613 68.4226 56.9733C68.5075 52.9233 66.5578 47.9446 61.0428 46.2011C54.1004 44.0063 47.6371 48.3949 45.6192 54.7776L45.5884 54.8749C45.15 56.2618 40.6809 70.398 58.3943 88.6655C83.4219 83.9103 87.9234 69.7844 88.3213 68.3847Z" fill="#E62728"/>
<path d="M150.113 87.9199L150.144 87.8226C152.162 81.4398 149.396 74.1334 142.453 71.9386C136.938 70.1951 132.489 73.1507 130.223 76.511C130.308 72.461 128.358 67.4823 122.843 65.7388C115.901 63.544 109.445 67.9351 107.427 74.3179L107.397 74.4152C106.958 75.8021 102.489 89.9382 120.202 108.206C145.206 103.443 149.715 89.3195 150.113 87.9199Z" fill="#E62728"/>
</svg>
