<svg width="177" height="177" viewBox="0 0 177 177" fill="none" xmlns="http://www.w3.org/2000/svg">
<path d="M152.279 70.507C142.537 35.0934 105.931 14.2824 70.5175 24.0243C35.1039 33.7662 14.2929 70.3719 24.0348 105.786C33.7767 141.199 70.3824 162.01 105.796 152.268C141.21 142.526 162.021 105.921 152.279 70.507Z" fill="#4A85D3"/>
<path d="M96.155 22.0594C108.801 30.2178 118.306 42.4236 123.118 56.6826C127.93 70.9417 127.763 86.4111 122.647 100.564C117.53 114.716 107.765 126.715 94.9471 134.6C82.1292 142.485 67.0161 145.79 52.0769 143.976C60.4803 149.391 69.9966 152.842 79.9178 154.072C89.8391 155.303 99.9101 154.28 109.382 151.081C118.853 147.882 127.482 142.589 134.626 135.595C141.769 128.602 147.244 120.087 150.643 110.686C154.042 101.284 155.278 91.2369 154.259 81.2918C153.239 71.3467 149.991 61.7594 144.755 53.2429C139.519 44.7265 132.43 37.5002 124.016 32.1013C115.602 26.7025 106.079 23.2701 96.155 22.0594Z" fill="#407EC1"/>
<path d="M38.8198 118.451C33.4499 106.726 31.8864 93.6138 34.3488 80.9551C36.8111 68.2964 43.1757 56.7265 52.5492 47.8696C61.9226 39.0128 73.8343 33.3135 86.6121 31.5719C99.39 29.8303 112.392 32.1337 123.794 38.1589C116.911 33.242 109.091 29.7917 100.82 28.0222C92.548 26.2527 84.0009 26.2016 75.7087 27.8723C67.4165 29.5429 59.5559 32.8995 52.6147 37.734C45.6735 42.5684 39.7997 48.7775 35.3576 55.9761C30.9155 63.1747 27.9999 71.2093 26.7917 79.5814C25.5834 87.9535 26.1083 96.4846 28.3338 104.645C30.5593 112.806 34.4379 120.423 39.729 127.023C45.02 133.622 51.6108 139.065 59.0923 143.012C50.2935 136.749 43.3012 128.277 38.8198 118.451Z" fill="#5B9ADD"/>
<path d="M116.446 57.9044L95.4551 67.5151C95.3304 67.5731 95.194 67.6017 95.0564 67.5986C94.9189 67.5955 94.7839 67.5609 94.6619 67.4973C94.5399 67.4337 94.4342 67.3429 94.3528 67.232C94.2715 67.121 94.2168 66.9928 94.1929 66.8573C93.6644 63.4353 92.2315 60.1184 90.809 57.0113C90.0219 55.1371 89.1397 53.3042 88.1659 51.5198C87.2127 49.6989 85.7688 48.1812 83.9976 47.1386C83.0252 46.5748 81.9374 46.2395 80.8164 46.1581C79.6954 46.0767 78.5706 46.2514 77.527 46.6688C72.7316 48.8644 74.1227 53.908 75.4232 57.9291C76.9315 62.6101 78.8485 67.2842 78.7433 72.2835C78.6663 75.7511 77.8556 79.1342 75.3503 81.74C73.6677 83.6333 71.7981 85.3518 69.77 86.8692C69.6006 86.9888 69.4783 87.1639 69.4242 87.3641C69.3702 87.5643 69.3878 87.7772 69.4741 87.9658L83.6838 119.001C83.7301 119.112 83.7984 119.213 83.8845 119.297C83.9706 119.382 84.0728 119.448 84.185 119.492C84.2972 119.536 84.4171 119.556 84.5376 119.553C84.658 119.55 84.7765 119.522 84.8861 119.472L93.4695 115.542C93.5982 115.484 93.7384 115.456 93.8794 115.462C94.0203 115.467 94.1581 115.505 94.2819 115.573C95.6773 116.34 97.2327 116.77 98.8238 116.828C100.415 116.886 101.998 116.571 103.445 115.908L130.352 103.589C132.241 102.717 133.709 101.134 134.435 99.1841C135.161 97.2345 135.087 95.0768 134.228 93.1818C133.768 92.1965 133.079 91.3351 132.219 90.6691C132.06 90.544 131.95 90.3677 131.906 90.1701C131.863 89.9725 131.889 89.7659 131.981 89.5856C132.867 87.7726 132.634 84.6785 131.722 82.6851L131.358 81.8906C130.896 80.9063 130.208 80.0452 129.349 79.3779C129.193 79.2511 129.084 79.0748 129.04 78.8779C128.997 78.6811 129.022 78.4753 129.111 78.2944C129.591 77.3598 129.853 76.3278 129.874 75.2771C129.896 74.2263 129.677 73.1845 129.235 72.231L128.871 71.4365C128.422 70.4494 127.746 69.5827 126.898 68.9075C126.74 68.7816 126.63 68.6052 126.587 68.408C126.543 68.2108 126.569 68.0047 126.659 67.824C127.136 66.8887 127.395 65.8572 127.415 64.8074C127.435 63.7577 127.217 62.717 126.776 61.7639C125.905 59.8942 124.333 58.4419 122.401 57.7199C120.468 56.998 118.33 57.0643 116.446 57.9044Z" fill="white"/>
<path d="M61.2053 86.586L48.5288 92.3901C47.4553 92.8816 46.9835 94.1502 47.475 95.2237L63.7017 130.664C64.1932 131.738 65.4618 132.209 66.5353 131.718L79.2119 125.914C80.2853 125.422 80.7571 124.154 80.2656 123.08L64.039 87.6398C63.5475 86.5663 62.2788 86.0945 61.2053 86.586Z" fill="white"/>
</svg>
