<svg width="170" height="171" viewBox="0 0 170 171" fill="none" xmlns="http://www.w3.org/2000/svg">
<path d="M144.621 124.248C165.967 91.1637 156.451 47.039 123.367 25.6928C90.2824 4.34657 46.1576 13.8623 24.8114 46.9468C3.46519 80.0313 12.9809 124.156 46.0654 145.502C79.1499 166.848 123.275 157.333 144.621 124.248Z" fill="#FFD05D"/>
<path d="M108.347 18.2574C119.702 29.7162 126.836 44.6874 128.583 60.7249C130.33 76.7625 126.586 92.9183 117.964 106.553C109.341 120.188 96.3498 130.496 81.1117 135.792C65.8736 141.089 49.2897 141.061 34.0693 135.714C41.6168 143.323 50.7825 149.131 60.8848 152.709C70.987 156.286 81.7658 157.54 92.4194 156.377C103.073 155.214 113.327 151.664 122.42 145.991C131.512 140.318 139.208 132.668 144.936 123.61C150.664 114.552 154.276 104.32 155.504 93.6733C156.732 83.027 155.543 72.2408 152.027 62.1171C148.511 51.9933 142.758 42.7926 135.196 35.1991C127.633 27.6056 118.456 21.8148 108.347 18.2574V18.2574Z" fill="#FDC453"/>
<path d="M26.0813 105.934C23.1655 92.4207 24.5545 78.3335 30.0534 65.6499C35.5523 52.9663 44.8851 42.3231 56.7416 35.2142C68.5981 28.1054 82.3831 24.8879 96.1615 26.0133C109.94 27.1388 123.02 32.5507 133.566 41.4894C127.495 34.7536 120.105 29.3372 111.854 25.5759C103.603 21.8147 94.6672 19.7889 85.6009 19.6243C76.5346 19.4596 67.5312 21.1596 59.1491 24.6188C50.7671 28.0779 43.1852 33.2225 36.8738 39.7333C30.5624 46.2442 25.6561 53.9824 22.4592 62.468C19.2624 70.9535 17.8432 80.0055 18.2898 89.0622C18.7363 98.119 21.039 106.987 25.055 115.117C29.071 123.247 34.7147 130.465 41.6359 136.324C33.8702 127.737 28.5051 117.255 26.0813 105.934V105.934Z" fill="#FFD77F"/>
<path d="M60.5266 73.1202C61.5562 77.8948 60.0946 82.2655 57.2576 82.8773C54.4207 83.4891 51.2876 80.1092 50.2579 75.3347C49.2283 70.5601 50.7016 66.204 53.5304 65.5939C56.3592 64.9839 59.4951 68.3374 60.5266 73.1202Z" fill="#303030"/>
<path d="M111.878 62.046C112.907 66.8205 111.446 71.1912 108.609 71.803C105.772 72.4148 102.639 69.035 101.609 64.2604C100.58 59.4859 102.045 55.1315 104.882 54.5197C107.719 53.9079 110.846 57.2632 111.878 62.046Z" fill="#303030"/>
<path d="M39.3418 102.279C43.1385 113.49 50.9268 122.914 61.223 128.753C71.5192 134.593 83.6038 136.441 95.1748 133.946C106.746 131.451 116.995 124.786 123.969 115.222C130.943 105.658 134.155 93.8621 132.994 82.0822L39.3418 102.279Z" fill="#695342"/>
<path d="M60.0243 128.08C70.3217 134.325 82.5848 136.486 94.3963 134.136C106.208 131.787 116.711 125.098 123.835 115.389L123.183 114.468C88.4336 105.92 60.4136 127.782 60.0243 128.08Z" fill="#F06669"/>
</svg>
