<svg width="225" height="222" viewBox="0 0 225 222" fill="none" xmlns="http://www.w3.org/2000/svg">
<path d="M178.16 162.526C205.632 128.322 200.175 78.3228 165.97 50.8505C131.766 23.3781 81.7671 28.8356 54.2947 63.04C26.8224 97.2445 32.2798 147.243 66.4843 174.716C100.689 202.188 150.688 196.731 178.16 162.526Z" fill="#FFD05D"/>
<path d="M185.805 74.3009C186.752 92.2512 181.584 109.992 171.144 124.625C160.705 139.259 145.611 149.919 128.33 154.865C111.048 159.811 92.6002 158.75 75.9995 151.856C59.3989 144.961 45.627 132.641 36.9338 116.908C37.569 128.832 40.8844 140.46 46.6335 150.926C52.3825 161.392 60.4172 170.427 70.1399 177.36C79.8627 184.293 91.0233 188.944 102.792 190.968C114.56 192.992 126.634 192.337 138.114 189.051C149.594 185.766 160.186 179.934 169.102 171.99C178.017 164.046 185.027 154.195 189.61 143.168C194.193 132.141 196.23 120.223 195.572 108.3C194.913 96.3768 191.575 84.7557 185.805 74.3009Z" fill="#FDC453"/>
<path d="M52.3731 86.2169C59.9685 72.8161 71.5697 62.1303 85.5482 55.6593C99.5267 49.1883 115.181 47.2572 130.313 50.1369C145.445 53.0166 159.295 60.5625 169.92 71.7156C180.544 82.8686 187.409 97.0687 189.552 112.323C189.497 102.219 187.368 92.2345 183.295 82.9881C179.222 73.7417 173.292 65.4309 165.874 58.5711C158.456 51.7113 149.708 46.4488 140.172 43.1102C130.636 39.7716 120.515 38.428 110.438 39.1628C100.361 39.8976 90.5428 42.6951 81.5918 47.3817C72.6409 52.0684 64.7484 58.5443 58.4039 66.4076C52.0594 74.271 47.3983 83.354 44.7097 93.0935C42.0212 102.833 41.3624 113.021 42.7744 123.025C42.6833 110.125 45.994 97.4295 52.3731 86.2169Z" fill="#FFD77F"/>
<path d="M106.552 88.1915C106.945 85.3025 106.47 82.3619 105.189 79.743C103.908 77.1241 101.877 74.9448 99.3552 73.4817C96.8333 72.0187 93.9336 71.3378 91.0241 71.5254C88.1145 71.7131 85.3263 72.7608 83.0133 74.5358C82.5851 74.8696 82.2847 75.3404 82.1624 75.8693C82.0401 76.3983 82.1034 76.9532 82.3416 77.4411C82.5798 77.9289 82.9784 78.3201 83.4707 78.5489C83.963 78.7778 84.519 78.8305 85.0455 78.6982C90.9897 77.1511 98.745 77.6057 101.955 88.5527C102.116 89.0623 102.446 89.5022 102.889 89.8009C103.332 90.0996 103.864 90.2393 104.397 90.1975C104.93 90.1556 105.433 89.9345 105.824 89.5703C106.216 89.206 106.472 88.7201 106.552 88.1915Z" fill="#303030"/>
<path d="M165.943 121.862C166.335 118.973 165.861 116.033 164.579 113.414C163.298 110.795 161.268 108.616 158.746 107.153C156.224 105.69 153.324 105.009 150.415 105.196C147.505 105.384 144.717 106.432 142.404 108.207C141.976 108.54 141.675 109.011 141.553 109.54C141.431 110.069 141.494 110.624 141.732 111.112C141.97 111.6 142.369 111.991 142.861 112.22C143.354 112.449 143.91 112.501 144.436 112.369C150.38 110.822 158.136 111.277 161.346 122.224C161.52 122.818 161.919 123.321 162.458 123.625C162.795 123.815 163.173 123.92 163.56 123.93C163.947 123.94 164.33 123.855 164.677 123.682C165.023 123.509 165.322 123.255 165.546 122.94C165.771 122.625 165.916 122.26 165.967 121.876L165.943 121.862Z" fill="#303030"/>
<path d="M77.9434 108.288L78.0032 108.182C81.9145 101.283 80.5046 92.1496 73.0057 87.8982C67.0472 84.52 61.167 86.8425 57.721 90.1808C58.7998 85.5004 57.7811 79.2667 51.8226 75.8886C44.3238 71.6372 35.7623 75.1177 31.851 82.0166L31.7913 82.122C30.9364 83.6298 22.2819 98.895 38.3173 124.387C68.4295 125.069 77.1453 109.828 77.9434 108.288Z" fill="#EE5181"/>
<path d="M94.402 151.192C92.2169 149.968 90.4301 148.142 89.2548 145.931C88.0795 143.72 87.5654 141.217 87.7739 138.721C87.9824 136.226 88.9046 133.843 90.4305 131.858C91.9564 129.872 94.0215 128.368 96.3793 127.524C95.7947 124.48 96.3205 121.327 97.8611 118.637C99.2476 116.187 101.387 114.249 103.962 113.11C106.537 111.972 109.41 111.694 112.155 112.317C114.901 112.94 117.372 114.432 119.203 116.571C121.034 118.71 122.126 121.382 122.319 124.19C122.366 124.497 122.35 124.81 122.27 125.11C122.19 125.411 122.049 125.691 121.855 125.934C121.662 126.176 121.42 126.376 121.145 126.521C120.87 126.665 120.569 126.751 120.259 126.773C119.949 126.796 119.638 126.753 119.346 126.649C119.053 126.545 118.786 126.381 118.56 126.168C118.334 125.955 118.154 125.698 118.033 125.412C117.911 125.126 117.85 124.819 117.854 124.508C117.772 123.265 117.421 122.054 116.825 120.96C116.23 119.866 115.404 118.913 114.405 118.169C113.405 117.425 112.256 116.907 111.037 116.65C109.818 116.393 108.558 116.404 107.343 116.681C106.129 116.959 104.989 117.497 104.002 118.258C103.016 119.019 102.206 119.985 101.629 121.089C101.052 122.193 100.722 123.41 100.661 124.654C100.6 125.898 100.81 127.141 101.276 128.297C101.401 128.608 101.454 128.944 101.431 129.279C101.409 129.614 101.311 129.939 101.145 130.231C100.98 130.523 100.751 130.774 100.475 130.966C100.199 131.157 99.8838 131.284 99.5524 131.337C98.3321 131.537 97.1695 131.999 96.1437 132.689C95.1179 133.38 94.253 134.284 93.6081 135.339C92.9632 136.394 92.5535 137.576 92.4067 138.804C92.26 140.032 92.3797 141.277 92.7578 142.454C93.1359 143.632 93.7634 144.714 94.5975 145.627C95.4317 146.539 96.4529 147.262 97.5915 147.744C98.7302 148.227 99.9594 148.458 101.196 148.422C102.432 148.387 103.646 148.085 104.754 147.538C105.289 147.272 105.906 147.23 106.471 147.42C107.037 147.61 107.504 148.016 107.769 148.55C108.034 149.084 108.077 149.702 107.887 150.267C107.697 150.833 107.29 151.299 106.756 151.565C104.825 152.523 102.687 152.99 100.532 152.925C98.3775 152.86 96.2718 152.265 94.402 151.192Z" fill="#5E4939"/>
</svg>
