<svg width="75" height="59" viewBox="0 0 75 59" fill="none" xmlns="http://www.w3.org/2000/svg">
<circle cx="29.4995" cy="29.5007" r="29.5" fill="white"/>
<path d="M43.3314 16.4066H62.8248C64.3344 19.0884 67.6493 25.9001 69.8141 27.6095C71.4196 28.9057 73.2572 30.025 74.9995 31.1385C74.9995 35.5412 74.9995 39.9446 74.9995 44.348H68.4069C68.0145 47.2783 65.4959 49.494 62.5219 49.494C59.55 49.494 57.03 47.2805 56.6383 44.348H39.3111C38.918 47.2783 36.3994 49.494 33.4261 49.494C30.4521 49.494 27.9349 47.2898 27.5418 44.348H23.8509H22.7624V43.2595V33.5862C19.8478 31.0941 17.9995 27.3896 17.9995 23.2534C17.9995 15.7477 24.0836 9.6629 31.59 9.6629C36.5985 9.6629 40.974 12.3734 43.3314 16.4066V16.4066ZM24.7024 22.7349L29.5096 26.3677L38.3093 17.2451L40.3688 19.2259L30.6877 29.2623L29.8054 30.1768L28.7964 29.4134L22.9794 25.0179L24.7024 22.7349V22.7349ZM24.9387 35.1065V38.6943H27.0827V40.8698H24.9387V42.1724H27.6528C28.3044 39.4576 30.7643 37.6394 33.4261 37.6201C36.1867 37.6408 38.5606 39.4891 39.2009 42.1724H56.7486C57.3931 39.4877 59.772 37.6401 62.5219 37.6201C65.2818 37.6408 67.6564 39.4891 68.2974 42.1724H72.8232V40.8698H69.7475V38.6943H72.8232V37.368H69.6007H68.5136C68.5136 35.4502 68.5136 33.5332 68.5136 31.6162H71.7476C71.207 31.2617 70.6691 30.9043 70.1378 30.5348H60.9987C59.366 30.5348 58.0304 29.1971 58.0304 27.5651V22.2658C58.0304 20.6345 59.3674 19.2968 60.9987 19.2968H61.9583L61.5566 18.5828H44.3562C44.8897 20.0394 45.1804 21.612 45.1804 23.2534C45.1804 30.759 39.0956 36.8438 31.59 36.8438C29.1731 36.8438 26.9051 36.2122 24.9387 35.1065V35.1065ZM31.59 12.1815C25.4743 12.1815 20.5181 17.1377 20.5181 23.2534C20.5181 29.369 25.4743 34.3245 31.59 34.3245C37.7049 34.3245 42.6611 29.369 42.6611 23.2534C42.6611 17.1377 37.7049 12.1815 31.59 12.1815V12.1815ZM56.2523 40.8698H39.6957V38.6943H56.2523V40.8698ZM33.4261 39.7949C31.426 39.8186 29.665 41.3389 29.665 43.5567C29.665 45.6341 31.3486 47.3184 33.4261 47.3184C35.51 47.3184 37.1886 45.6399 37.1886 43.5567C37.1886 41.4585 35.5129 39.82 33.4261 39.7949V39.7949ZM62.5219 39.7949C60.4387 39.82 58.7609 41.4613 58.7609 43.5567C58.7609 44.5972 59.1812 45.5389 59.8601 46.2192C60.5404 46.8981 61.4821 47.3184 62.5219 47.3184C64.6058 47.3184 66.2844 45.6399 66.2844 43.5567C66.2844 41.4578 64.6115 39.82 62.5219 39.7949ZM72.8232 33.7917H70.6885V35.1917H72.8232V33.7917ZM63.1836 21.4731H60.9987C60.5626 21.4731 60.2067 21.829 60.2067 22.2658V27.5651C60.2067 28.0026 60.5619 28.3593 60.9987 28.3593H67.4309C66.2586 27.038 64.2635 23.3894 63.1836 21.4731Z" fill="#114965"/>
</svg>
