<svg width="26" height="26" viewBox="0 0 26 26" fill="none" xmlns="http://www.w3.org/2000/svg">
<path d="M22.9508 16.2264L26 12.9921L22.9468 9.76171L23.5121 5.35307L19.1432 4.53355L17.0086 0.635437L12.993 2.53921L8.9755 0.640413L6.84632 4.54051L2.47799 5.36601L3.04873 9.77415L0 13.0075L3.05271 16.2383L2.48645 20.647L6.85578 21.4665L8.98993 25.3646L13.0055 23.4603L17.0235 25.3596L19.1532 21.4585L23.521 20.6335L23.4623 20.1822L22.9508 16.2264ZM13 21.5242C8.29132 21.5242 4.47581 17.7077 4.47581 13C4.47581 8.29233 8.29132 4.47583 13 4.47583C17.7092 4.47583 21.5242 8.29233 21.5242 13C21.5242 17.7077 17.7087 21.5242 13 21.5242Z" fill="url(#paint0_linear_243_14291)"/>
<path d="M13 6.08398C9.18695 6.08398 6.08398 9.18645 6.08398 13C6.08398 16.8135 9.18695 19.916 13 19.916C16.813 19.916 19.916 16.814 19.916 13C19.916 9.18595 16.813 6.08398 13 6.08398ZM12.8616 16.2039L9.67906 13.5498L9.06205 13.0348L10.0916 11.7998L12.6407 13.925L16.2602 9.47555L17.5081 10.4901L12.8616 16.2039Z" fill="url(#paint1_linear_243_14291)"/>
<defs>
<linearGradient id="paint0_linear_243_14291" x1="13" y1="0.635437" x2="13" y2="25.3646" gradientUnits="userSpaceOnUse">
<stop stop-color="#60C0BC"/>
<stop offset="0.508333" stop-color="#4EB5E7"/>
<stop offset="1" stop-color="#7662A7"/>
</linearGradient>
<linearGradient id="paint1_linear_243_14291" x1="13" y1="6.08398" x2="13" y2="19.916" gradientUnits="userSpaceOnUse">
<stop stop-color="#60C0BC"/>
<stop offset="0.508333" stop-color="#4EB5E7"/>
<stop offset="1" stop-color="#7662A7"/>
</linearGradient>
</defs>
</svg>
