<svg width="37" height="37" viewBox="0 0 37 37" fill="none" xmlns="http://www.w3.org/2000/svg">
<circle cx="18.5" cy="18.5" r="18.5" fill="#E2EAEF"/>
<g clip-path="url(#clip0_234_9802)">
<path d="M22.2343 27C19.2541 27 16.0716 25.9049 13.5833 23.4167C11.0991 20.9325 10 17.7521 10 14.7657C10 12.1338 12.1294 10 14.7657 10C14.9694 10 15.1525 10.124 15.2282 10.3131L17.362 15.6477C17.4642 15.9031 17.34 16.1929 17.0846 16.2951L14.7406 17.2327C14.9064 19.9294 17.071 22.0939 19.7673 22.2595L20.7049 19.9154C20.8069 19.6605 21.0966 19.5358 21.3523 19.638L26.6869 21.7718C26.876 21.8475 27 22.0306 27 22.2343C27 24.8662 24.8706 27 22.2343 27Z" fill="#4EB4E6"/>
</g>
<defs>
<clipPath id="clip0_234_9802">
<rect width="17" height="17" fill="white" transform="translate(10 10)"/>
</clipPath>
</defs>
</svg>
