<svg width="37" height="37" viewBox="0 0 37 37" fill="none" xmlns="http://www.w3.org/2000/svg">
<circle cx="18.5" cy="18.5" r="18.5" fill="#E2EAEF"/>
<path d="M18.9964 10C15.1338 10.0037 12 13.1403 12 16.9916C11.9999 19.9429 13.8805 22.5282 16.6344 23.5274L18.0379 26.5643C18.3987 27.3454 19.6013 27.3454 19.9621 26.5643L21.3656 23.5274C24.1195 22.5282 26.0001 19.9429 26 16.9916C26 13.135 22.859 9.99624 18.9964 10ZM19.0001 13.3696C21.0227 13.3696 22.676 15.0223 22.676 17.0443C22.676 19.0662 21.0227 20.7178 19.0001 20.7178C16.9774 20.7178 15.3242 19.0662 15.3242 17.0443C15.3242 15.0223 16.9774 13.3696 19.0001 13.3696Z" fill="#4EB4E6"/>
</svg>
