<svg width="23" height="22" viewBox="0 0 23 22" fill="none" xmlns="http://www.w3.org/2000/svg">
<path d="M14.3835 11L22.4911 3.24484C23.1696 2.59587 23.1696 1.49263 22.4911 0.843658L22.118 0.486726C21.4395 -0.162242 20.2861 -0.162242 19.6077 0.486726L11.5 8.24189L3.39233 0.486726C2.71386 -0.162242 1.56047 -0.162242 0.882006 0.486726L0.50885 0.843658C-0.169617 1.49263 -0.169617 2.59587 0.50885 3.24484L8.61652 11L0.50885 18.7552C-0.169617 19.4041 -0.169617 20.5074 0.50885 21.1563L0.882006 21.5133C1.56047 22.1622 2.71386 22.1622 3.39233 21.5133L11.5 13.7581L19.6077 21.5133C20.2861 22.1622 21.4395 22.1622 22.118 21.5133L22.4911 21.1563C23.1696 20.5074 23.1696 19.4041 22.4911 18.7552L14.3835 11Z" fill="white"/>
</svg>
