<svg width="223" height="179" viewBox="0 0 223 179" fill="none" xmlns="http://www.w3.org/2000/svg">
<circle cx="111.5" cy="92.5" r="86.5" fill="#4EB5E7" fill-opacity="0.22"/>
<circle cx="111.5" cy="92.5" r="65.5" fill="#4EB5E7" fill-opacity="0.8"/>
<path d="M123.153 81.2046L106.015 98.3423L100.067 92.3944C99.0616 91.3888 97.4355 91.3888 96.43 92.3944C95.4244 93.4 95.4244 95.0261 96.43 96.0316L104.196 103.798C104.689 104.29 105.33 104.547 106.015 104.547C106.7 104.547 107.342 104.269 107.834 103.798L126.769 84.8633C127.774 83.8577 127.774 82.2316 126.769 81.226C125.784 80.2205 124.158 80.2205 123.153 81.2046Z" fill="white"/>
<path d="M68.9809 110.901C68.4246 109.596 66.9056 108.997 65.6005 109.553C64.2953 110.11 63.6963 111.629 64.2526 112.934C64.6805 113.897 65.6219 114.496 66.606 114.496C66.9484 114.496 67.2907 114.432 67.633 114.282C68.9381 113.704 69.5372 112.207 68.9809 110.901Z" fill="white"/>
<path d="M66.1558 101.958C65.8777 100.567 64.5084 99.6688 63.1177 99.9684C61.727 100.268 60.8284 101.594 61.1279 102.985C61.3847 104.205 62.4544 105.039 63.6312 105.039C63.8024 105.039 63.9735 105.018 64.1447 104.975C65.5568 104.697 66.434 103.327 66.1558 101.958Z" fill="white"/>
<path d="M85.6909 53.4977C86.1616 53.4977 86.6323 53.3693 87.0602 53.1126C88.2583 52.3637 88.6221 50.7805 87.8732 49.5823C87.1244 48.3842 85.5411 48.0205 84.343 48.7693C83.1449 49.5181 82.7811 51.1014 83.53 52.2995C84.0007 53.0698 84.8351 53.4977 85.6909 53.4977Z" fill="white"/>
<path d="M77.8587 59.574C78.5006 59.574 79.121 59.3386 79.6345 58.8679C80.6615 57.8837 80.7043 56.2577 79.7201 55.2307C78.7359 54.2037 77.1099 54.1609 76.0829 55.1451C75.0559 56.1293 75.0131 57.7553 75.9973 58.7823C76.4894 59.2958 77.1741 59.574 77.8587 59.574Z" fill="white"/>
<path d="M62.626 95.1758C64.0381 95.1758 65.1935 94.0205 65.1935 92.6084C65.1935 92.587 65.1935 92.587 65.1935 92.5656C65.1935 92.5442 65.1935 92.5228 65.1935 92.5014C65.1935 91.0893 64.0381 89.9339 62.626 89.9339C61.2139 89.9339 60.0586 91.0893 60.0586 92.5014C60.0586 92.5228 60.0586 92.5442 60.0586 92.5656C60.0586 92.587 60.0586 92.6084 60.0586 92.6298C60.0586 94.0419 61.2139 95.1758 62.626 95.1758Z" fill="white"/>
<path d="M76.0633 126.306C75.0791 127.333 75.1219 128.959 76.1702 129.943C76.6623 130.414 77.3042 130.649 77.9461 130.649C78.6307 130.649 79.3154 130.371 79.8075 129.836C80.7916 128.809 80.7489 127.183 79.7005 126.199C78.6735 125.236 77.0475 125.279 76.0633 126.306Z" fill="white"/>
<path d="M63.0973 85.1628C63.2685 85.2056 63.4396 85.227 63.6108 85.227C64.8089 85.227 65.8787 84.3926 66.1141 83.173C66.3922 81.7823 65.4936 80.4344 64.1029 80.1349C62.7122 79.8567 61.3643 80.7553 61.0648 82.146C60.8294 83.5153 61.728 84.8633 63.0973 85.1628Z" fill="white"/>
<path d="M155.91 78.5516C156.252 79.6428 157.257 80.3488 158.349 80.3488C158.605 80.3488 158.862 80.306 159.119 80.2205C160.467 79.7926 161.216 78.3591 160.788 77.0112C160.36 75.6633 158.926 74.9144 157.578 75.3423C156.252 75.7702 155.482 77.2037 155.91 78.5516Z" fill="white"/>
<path d="M113.953 46.1377C113.996 46.1377 114.039 46.1377 114.082 46.1377C115.451 46.1377 116.585 45.0679 116.649 43.6986C116.713 42.2865 115.622 41.067 114.21 41.0028C112.798 40.9386 111.6 42.0298 111.514 43.4419C111.45 44.8539 112.541 46.0521 113.953 46.1377Z" fill="white"/>
<path d="M123.24 47.5284C123.454 47.5925 123.668 47.6139 123.882 47.6139C125.016 47.6139 126.064 46.8437 126.363 45.6884C126.727 44.319 125.893 42.907 124.523 42.5646C123.154 42.2009 121.742 43.0353 121.4 44.4046C121.036 45.7739 121.87 47.186 123.24 47.5284Z" fill="white"/>
<path d="M160.103 84.9274C158.691 85.0772 157.664 86.3181 157.813 87.7302C157.942 89.0567 159.054 90.0409 160.359 90.0409C160.445 90.0409 160.531 90.0409 160.616 90.0195C162.028 89.8698 163.055 88.6074 162.905 87.1953C162.777 85.826 161.515 84.7991 160.103 84.9274Z" fill="white"/>
<path d="M87.1452 131.954C85.9471 131.206 84.3638 131.569 83.615 132.789C82.8661 133.987 83.2299 135.57 84.4494 136.319C84.8773 136.576 85.348 136.704 85.7973 136.704C86.6531 136.704 87.4875 136.276 87.9796 135.485C88.7071 134.287 88.3434 132.703 87.1452 131.954Z" fill="white"/>
<path d="M104.175 46.6298C104.304 46.6298 104.432 46.6298 104.56 46.6084C105.951 46.3944 106.914 45.0893 106.7 43.6772C106.486 42.2651 105.181 41.3237 103.769 41.5377C102.357 41.7516 101.394 43.0567 101.608 44.4688C101.843 45.7312 102.934 46.6298 104.175 46.6298Z" fill="white"/>
<path d="M65.5794 75.5349C65.9004 75.6847 66.2427 75.7488 66.585 75.7488C67.5692 75.7488 68.532 75.1712 68.9385 74.187C69.4948 72.8819 68.8957 71.3842 67.5906 70.8065C66.2855 70.2502 64.7664 70.8493 64.2101 72.1544C63.6538 73.4809 64.2743 74.9786 65.5794 75.5349Z" fill="white"/>
<path d="M69.9225 66.6344C70.3718 66.9339 70.8852 67.0837 71.3987 67.0837C72.2118 67.0837 73.0034 66.6986 73.5169 65.9926C74.3299 64.8372 74.0518 63.2326 72.875 62.4195C71.7197 61.6065 70.115 61.8846 69.302 63.0614C68.489 64.2167 68.7671 65.8214 69.9225 66.6344Z" fill="white"/>
<path d="M69.9869 118.475C68.8316 119.288 68.5534 120.893 69.3664 122.048C69.8585 122.754 70.6716 123.14 71.4632 123.14C71.9767 123.14 72.4902 122.99 72.9395 122.669C74.0948 121.856 74.3944 120.251 73.5599 119.096C72.7469 117.94 71.1423 117.662 69.9869 118.475Z" fill="white"/>
<path d="M154.454 71.2558C154.882 71.2558 155.31 71.1488 155.695 70.9349C156.936 70.2502 157.386 68.6884 156.679 67.4474C155.995 66.2065 154.433 65.7572 153.192 66.4633C151.951 67.1479 151.502 68.7098 152.208 69.9507C152.679 70.7637 153.556 71.2558 154.454 71.2558Z" fill="white"/>
<path d="M150.518 122.412C149.448 121.492 147.822 121.62 146.902 122.69C145.982 123.76 146.11 125.386 147.18 126.306C147.672 126.713 148.25 126.926 148.849 126.926C149.576 126.926 150.304 126.627 150.796 126.028C151.716 124.958 151.588 123.332 150.518 122.412Z" fill="white"/>
<path d="M148.763 63.1256C149.362 63.1256 149.961 62.9116 150.432 62.5051C151.502 61.5851 151.63 59.9591 150.71 58.8893C149.79 57.8195 148.164 57.6912 147.094 58.6112C146.024 59.5312 145.896 61.1572 146.816 62.227C147.33 62.8261 148.057 63.1256 148.763 63.1256Z" fill="white"/>
<path d="M160.616 94.8549C159.204 94.7265 157.941 95.7535 157.813 97.1656C157.663 98.5777 158.712 99.84 160.124 99.9684C160.209 99.9684 160.295 99.9898 160.381 99.9898C161.686 99.9898 162.798 99.0056 162.927 97.6791C163.076 96.2456 162.028 94.9833 160.616 94.8549Z" fill="white"/>
<path d="M94.5911 49.1116C94.8906 49.1116 95.1901 49.0688 95.4897 48.9405C96.8162 48.4484 97.5008 46.9721 97.0087 45.6456C96.5166 44.3191 95.0404 43.6344 93.7138 44.1265C92.3873 44.6186 91.7027 46.0949 92.1948 47.4214C92.5585 48.4698 93.5427 49.1116 94.5911 49.1116Z" fill="white"/>
<path d="M155.739 113.982C154.498 113.298 152.936 113.747 152.252 114.988C151.567 116.229 152.016 117.791 153.257 118.475C153.642 118.689 154.07 118.796 154.498 118.796C155.397 118.796 156.274 118.326 156.745 117.47C157.429 116.229 156.98 114.667 155.739 113.982Z" fill="white"/>
<path d="M159.162 104.675C157.814 104.247 156.38 104.996 155.952 106.366C155.524 107.713 156.295 109.147 157.643 109.575C157.899 109.66 158.156 109.682 158.413 109.682C159.504 109.682 160.531 108.976 160.873 107.885C161.28 106.515 160.51 105.082 159.162 104.675Z" fill="white"/>
<path d="M140.099 129.173C138.986 130.05 138.772 131.655 139.65 132.767C140.163 133.431 140.912 133.752 141.682 133.752C142.238 133.752 142.795 133.58 143.265 133.217C144.378 132.34 144.592 130.735 143.715 129.622C142.816 128.51 141.211 128.317 140.099 129.173Z" fill="white"/>
<path d="M114.061 138.865C112.649 138.951 111.558 140.149 111.622 141.561C111.686 142.93 112.82 144 114.189 144C114.232 144 114.275 144 114.318 144C115.73 143.936 116.821 142.716 116.757 141.304C116.693 139.892 115.473 138.801 114.061 138.865Z" fill="white"/>
<path d="M104.668 138.416C103.277 138.202 101.951 139.165 101.758 140.577C101.544 141.967 102.507 143.294 103.919 143.487C104.048 143.508 104.176 143.508 104.304 143.508C105.545 143.508 106.658 142.588 106.829 141.326C107.043 139.935 106.059 138.63 104.668 138.416Z" fill="white"/>
<path d="M95.5756 136.084C94.2491 135.592 92.7728 136.276 92.2807 137.603C91.7886 138.929 92.4733 140.406 93.7998 140.898C94.0993 141.005 94.3988 141.047 94.677 141.047C95.7254 141.047 96.7095 140.406 97.0947 139.357C97.5868 138.052 96.9021 136.576 95.5756 136.084Z" fill="white"/>
<path d="M123.324 137.432C121.954 137.795 121.12 139.186 121.484 140.555C121.783 141.711 122.832 142.481 123.966 142.481C124.18 142.481 124.393 142.46 124.607 142.395C125.977 142.032 126.811 140.641 126.447 139.272C126.105 137.902 124.714 137.089 123.324 137.432Z" fill="white"/>
<path d="M132.139 134.158C130.855 134.779 130.341 136.319 130.962 137.603C131.411 138.501 132.31 139.036 133.273 139.036C133.658 139.036 134.043 138.951 134.406 138.78C135.69 138.159 136.204 136.619 135.583 135.335C134.941 134.051 133.401 133.538 132.139 134.158Z" fill="white"/>
<path d="M132.033 50.8019C132.397 50.973 132.782 51.0586 133.167 51.0586C134.109 51.0586 135.029 50.5237 135.478 49.6251C136.098 48.3414 135.585 46.8223 134.301 46.1805C133.017 45.56 131.498 46.0735 130.857 47.3572C130.236 48.6195 130.771 50.16 132.033 50.8019Z" fill="white"/>
<path d="M140.013 55.7656C140.484 56.1293 141.04 56.3005 141.575 56.3005C142.345 56.3005 143.094 55.9581 143.607 55.2949C144.485 54.1823 144.271 52.5563 143.158 51.7005C142.045 50.8232 140.419 51.0372 139.564 52.1498C138.686 53.2837 138.9 54.8884 140.013 55.7656Z" fill="white"/>
<circle cx="219" cy="4" r="4" fill="#459EC9"/>
<circle cx="204.5" cy="17.5" r="6.5" fill="#459EC9"/>
<circle cx="6.5" cy="132.5" r="6.5" fill="#459EC9"/>
<circle cx="21.5" cy="139.5" r="3.5" fill="#459EC9"/>
<circle cx="8.5" cy="153.5" r="2.5" fill="#459EC9"/>
</svg>
