<svg width="52" height="52" viewBox="0 0 52 52" fill="none" xmlns="http://www.w3.org/2000/svg">
<circle cx="25.9999" cy="25.9999" r="25.9999" fill="#4EB5E7" fill-opacity="0.22"/>
<circle cx="25.9998" cy="26" r="19.6878" fill="#4EB5E7" fill-opacity="0.8"/>
<g clip-path="url(#clip0_199_6875)">
<path d="M29.5031 22.6048L24.3519 27.756L22.5641 25.9682C22.2618 25.6659 21.7731 25.6659 21.4708 25.9682C21.1686 26.2704 21.1686 26.7592 21.4708 27.0614L23.8053 29.3959C23.9532 29.5438 24.1461 29.621 24.3519 29.621C24.5577 29.621 24.7506 29.5373 24.8985 29.3959L30.5899 23.7045C30.8922 23.4022 30.8922 22.9135 30.5899 22.6112C30.2941 22.309 29.8053 22.309 29.5031 22.6048Z" fill="white"/>
<path d="M13.22 31.5311C13.0528 31.1388 12.5962 30.9587 12.2039 31.1259C11.8116 31.2931 11.6315 31.7497 11.7987 32.142C11.9274 32.4314 12.2103 32.6115 12.5061 32.6115C12.609 32.6115 12.7119 32.5922 12.8148 32.5472C13.2071 32.3735 13.3872 31.9234 13.22 31.5311Z" fill="white"/>
<path d="M12.3709 28.8429C12.2873 28.4248 11.8757 28.1547 11.4577 28.2448C11.0397 28.3348 10.7696 28.7335 10.8596 29.1515C10.9368 29.5181 11.2583 29.7689 11.612 29.7689C11.6635 29.7689 11.7149 29.7625 11.7664 29.7496C12.1908 29.666 12.4545 29.2544 12.3709 28.8429Z" fill="white"/>
<path d="M18.2426 14.2769C18.3841 14.2769 18.5256 14.2383 18.6542 14.1611C19.0143 13.936 19.1237 13.4601 18.8986 13.1C18.6735 12.7399 18.1976 12.6306 17.8375 12.8556C17.4773 13.0807 17.368 13.5566 17.5931 13.9167C17.7346 14.1483 17.9854 14.2769 18.2426 14.2769Z" fill="white"/>
<path d="M15.8888 16.1034C16.0817 16.1034 16.2682 16.0326 16.4226 15.8911C16.7312 15.5953 16.7441 15.1066 16.4483 14.7979C16.1525 14.4892 15.6637 14.4763 15.355 14.7722C15.0463 15.068 15.0335 15.5567 15.3293 15.8654C15.4772 16.0198 15.683 16.1034 15.8888 16.1034Z" fill="white"/>
<path d="M11.3098 26.8043C11.7342 26.8043 12.0815 26.457 12.0815 26.0325C12.0815 26.0261 12.0815 26.0261 12.0815 26.0197C12.0815 26.0133 12.0815 26.0068 12.0815 26.0004C12.0815 25.5759 11.7342 25.2287 11.3098 25.2287C10.8854 25.2287 10.5381 25.5759 10.5381 26.0004C10.5381 26.0068 10.5381 26.0133 10.5381 26.0197C10.5381 26.0261 10.5381 26.0325 10.5381 26.039C10.5381 26.4634 10.8854 26.8043 11.3098 26.8043Z" fill="white"/>
<path d="M15.3486 36.1613C15.0528 36.47 15.0656 36.9587 15.3807 37.2545C15.5287 37.396 15.7216 37.4667 15.9145 37.4667C16.1203 37.4667 16.3261 37.3831 16.474 37.2224C16.7698 36.9137 16.757 36.4249 16.4419 36.1291C16.1332 35.8397 15.6444 35.8526 15.3486 36.1613Z" fill="white"/>
<path d="M11.4513 23.7946C11.5027 23.8075 11.5542 23.8139 11.6056 23.8139C11.9658 23.8139 12.2873 23.5631 12.358 23.1965C12.4417 22.7785 12.1716 22.3734 11.7535 22.2834C11.3355 22.1997 10.9304 22.4699 10.8403 22.8879C10.7696 23.2994 11.0397 23.7046 11.4513 23.7946Z" fill="white"/>
<path d="M39.3486 21.8075C39.4515 22.1355 39.7538 22.3477 40.0818 22.3477C40.1589 22.3477 40.2361 22.3348 40.3133 22.3091C40.7184 22.1805 40.9435 21.7496 40.8149 21.3445C40.6863 20.9393 40.2554 20.7142 39.8502 20.8428C39.4515 20.9715 39.22 21.4023 39.3486 21.8075Z" fill="white"/>
<path d="M26.7378 12.0646C26.7507 12.0646 26.7636 12.0646 26.7764 12.0646C27.188 12.0646 27.5288 11.743 27.5481 11.3315C27.5674 10.907 27.2395 10.5404 26.815 10.5212C26.3906 10.5019 26.0304 10.8298 26.0047 11.2543C25.9854 11.6787 26.3134 12.0389 26.7378 12.0646Z" fill="white"/>
<path d="M29.5289 12.4825C29.5932 12.5018 29.6575 12.5082 29.7218 12.5082C30.0627 12.5082 30.3778 12.2767 30.4678 11.9294C30.5771 11.5178 30.3263 11.0934 29.9148 10.9905C29.5032 10.8812 29.0787 11.132 28.9758 11.5436C28.8665 11.9552 29.1173 12.3796 29.5289 12.4825Z" fill="white"/>
<path d="M40.609 23.7239C40.1845 23.7689 39.8758 24.1419 39.9209 24.5663C39.9595 24.9651 40.2939 25.2609 40.6861 25.2609C40.7119 25.2609 40.7376 25.2609 40.7633 25.2545C41.1878 25.2094 41.4964 24.83 41.4514 24.4056C41.4128 23.994 41.0334 23.6853 40.609 23.7239Z" fill="white"/>
<path d="M18.6798 37.8592C18.3197 37.6341 17.8438 37.7434 17.6187 38.11C17.3936 38.4701 17.5029 38.946 17.8695 39.1711C17.9981 39.2482 18.1396 39.2868 18.2747 39.2868C18.5319 39.2868 18.7827 39.1582 18.9306 38.9203C19.1493 38.5601 19.0399 38.0842 18.6798 37.8592Z" fill="white"/>
<path d="M23.7987 12.2125C23.8373 12.2125 23.8759 12.2125 23.9145 12.2061C24.3325 12.1418 24.6219 11.7495 24.5576 11.325C24.4933 10.9006 24.101 10.6176 23.6765 10.682C23.2521 10.7463 22.9627 11.1386 23.027 11.563C23.0977 11.9424 23.4257 12.2125 23.7987 12.2125Z" fill="white"/>
<path d="M12.1971 20.9008C12.2936 20.9458 12.3965 20.9651 12.4994 20.9651C12.7952 20.9651 13.0846 20.7914 13.2068 20.4956C13.374 20.1033 13.1939 19.6532 12.8016 19.4795C12.4093 19.3123 11.9527 19.4924 11.7855 19.8847C11.6183 20.2834 11.8048 20.7336 12.1971 20.9008Z" fill="white"/>
<path d="M13.5029 18.2254C13.6379 18.3154 13.7922 18.3604 13.9466 18.3604C14.191 18.3604 14.4289 18.2447 14.5833 18.0325C14.8276 17.6852 14.744 17.2029 14.3903 16.9585C14.0431 16.7141 13.5607 16.7977 13.3164 17.1514C13.072 17.4987 13.1556 17.981 13.5029 18.2254Z" fill="white"/>
<path d="M13.5219 33.8076C13.1746 34.052 13.091 34.5343 13.3354 34.8816C13.4833 35.0938 13.7277 35.2095 13.9656 35.2095C14.12 35.2095 14.2743 35.1645 14.4094 35.068C14.7566 34.8237 14.8467 34.3414 14.5959 33.9941C14.3515 33.6468 13.8692 33.5632 13.5219 33.8076Z" fill="white"/>
<path d="M38.9116 19.6145C39.0402 19.6145 39.1689 19.5824 39.2846 19.5181C39.6576 19.3123 39.7927 18.8428 39.5804 18.4698C39.3747 18.0968 38.9052 17.9618 38.5322 18.174C38.1592 18.3798 38.0242 18.8492 38.2364 19.2222C38.3779 19.4666 38.6415 19.6145 38.9116 19.6145Z" fill="white"/>
<path d="M37.7282 34.9907C37.4066 34.7142 36.9179 34.7528 36.6414 35.0743C36.3648 35.3959 36.4034 35.8846 36.725 36.1612C36.8729 36.2834 37.0465 36.3477 37.2266 36.3477C37.4452 36.3477 37.6639 36.2576 37.8118 36.0776C38.0883 35.756 38.0497 35.2673 37.7282 34.9907Z" fill="white"/>
<path d="M37.2007 17.1708C37.3808 17.1708 37.5608 17.1065 37.7023 16.9843C38.0239 16.7077 38.0624 16.219 37.7859 15.8974C37.5094 15.5759 37.0206 15.5373 36.6991 15.8138C36.3775 16.0904 36.3389 16.5791 36.6155 16.9007C36.7698 17.0807 36.9885 17.1708 37.2007 17.1708Z" fill="white"/>
<path d="M40.7637 26.7079C40.3393 26.6693 39.9599 26.978 39.9213 27.4024C39.8763 27.8269 40.1914 28.2063 40.6158 28.2449C40.6415 28.2449 40.6673 28.2513 40.693 28.2513C41.0853 28.2513 41.4197 27.9555 41.4583 27.5568C41.5033 27.1259 41.1882 26.7465 40.7637 26.7079Z" fill="white"/>
<path d="M20.9177 12.9584C21.0077 12.9584 21.0977 12.9456 21.1878 12.907C21.5865 12.7591 21.7923 12.3153 21.6444 11.9166C21.4964 11.5179 21.0527 11.3121 20.654 11.46C20.2553 11.6079 20.0495 12.0517 20.1974 12.4504C20.3067 12.7655 20.6025 12.9584 20.9177 12.9584Z" fill="white"/>
<path d="M39.2973 32.4572C38.9243 32.2514 38.4549 32.3864 38.2491 32.7594C38.0433 33.1324 38.1783 33.6019 38.5513 33.8077C38.6671 33.872 38.7957 33.9041 38.9243 33.9041C39.1944 33.9041 39.4581 33.7626 39.5996 33.5054C39.8053 33.1324 39.6703 32.663 39.2973 32.4572Z" fill="white"/>
<path d="M40.3259 29.6596C39.9208 29.5309 39.4899 29.756 39.3613 30.1676C39.2327 30.5728 39.4642 31.0036 39.8693 31.1322C39.9465 31.158 40.0237 31.1644 40.1008 31.1644C40.4288 31.1644 40.7375 30.9522 40.8404 30.6242C40.9626 30.2126 40.7311 29.7818 40.3259 29.6596Z" fill="white"/>
<path d="M34.5963 37.0232C34.2619 37.2868 34.1976 37.7691 34.4613 38.1036C34.6156 38.3029 34.8407 38.3994 35.0722 38.3994C35.2394 38.3994 35.4066 38.3479 35.5481 38.2386C35.8825 37.9749 35.9468 37.4926 35.6832 37.1582C35.4131 36.8238 34.9307 36.7659 34.5963 37.0232Z" fill="white"/>
<path d="M26.7701 39.9363C26.3456 39.9621 26.0176 40.3222 26.0369 40.7466C26.0562 41.1582 26.3971 41.4798 26.8087 41.4798C26.8215 41.4798 26.8344 41.4798 26.8472 41.4798C27.2717 41.4605 27.5997 41.0939 27.5804 40.6695C27.5611 40.245 27.1945 39.9171 26.7701 39.9363Z" fill="white"/>
<path d="M23.9465 39.8013C23.5285 39.737 23.1298 40.0264 23.0719 40.4508C23.0076 40.8688 23.297 41.2675 23.7215 41.3254C23.76 41.3318 23.7986 41.3318 23.8372 41.3318C24.2102 41.3318 24.5446 41.0553 24.5961 40.6759C24.6604 40.2579 24.3645 39.8656 23.9465 39.8013Z" fill="white"/>
<path d="M21.2136 39.1003C20.8149 38.9524 20.3712 39.1582 20.2233 39.5569C20.0754 39.9556 20.2811 40.3994 20.6799 40.5473C20.7699 40.5794 20.8599 40.5923 20.9435 40.5923C21.2587 40.5923 21.5545 40.3994 21.6702 40.0843C21.8181 39.692 21.6124 39.2482 21.2136 39.1003Z" fill="white"/>
<path d="M29.5543 39.5053C29.1427 39.6147 28.8919 40.0327 29.0012 40.4443C29.0913 40.7915 29.4064 41.0231 29.7472 41.0231C29.8115 41.0231 29.8758 41.0166 29.9401 40.9973C30.3517 40.888 30.6025 40.47 30.4932 40.0584C30.3903 39.6468 29.9723 39.4025 29.5543 39.5053Z" fill="white"/>
<path d="M32.2041 38.5215C31.8183 38.708 31.6639 39.171 31.8504 39.5569C31.9855 39.827 32.2556 39.9877 32.545 39.9877C32.6607 39.9877 32.7765 39.962 32.8858 39.9106C33.2717 39.7241 33.426 39.261 33.2395 38.8752C33.0466 38.4893 32.5835 38.335 32.2041 38.5215Z" fill="white"/>
<path d="M32.1717 13.4665C32.2811 13.518 32.3968 13.5437 32.5126 13.5437C32.7956 13.5437 33.0721 13.3829 33.2071 13.1128C33.3936 12.727 33.2393 12.2704 32.8534 12.0774C32.4676 11.8909 32.011 12.0453 31.818 12.4311C31.6316 12.8106 31.7923 13.2736 32.1717 13.4665Z" fill="white"/>
<path d="M34.5705 14.9585C34.7119 15.0679 34.8791 15.1193 35.0399 15.1193C35.2714 15.1193 35.4965 15.0164 35.6509 14.817C35.9145 14.4826 35.8502 13.9939 35.5158 13.7367C35.1814 13.473 34.6926 13.5373 34.4354 13.8717C34.1717 14.2125 34.2361 14.6949 34.5705 14.9585Z" fill="white"/>
</g>
<defs>
<clipPath id="clip0_199_6875">
<rect width="30.9594" height="30.9594" fill="white" transform="translate(10.5205 10.5203)"/>
</clipPath>
</defs>
</svg>
