<svg width="72" height="59" viewBox="0 0 72 59" fill="none" xmlns="http://www.w3.org/2000/svg">
<circle cx="29.5" cy="29.5" r="29.5" fill="white"/>
<path d="M59.7787 24.7991L63.2327 24.648C63.8334 24.4968 64.4341 23.8924 64.4341 23.1368V18.9056H27.1911C26.4402 18.9056 25.8395 18.3011 25.8395 17.6966C25.8395 16.9411 26.4402 16.3366 27.1911 16.3366H34.0991L38.9046 14.0699H25.0886C24.1876 14.0699 23.4367 14.8255 23.4367 15.7321V47.7686C23.4367 48.6753 24.1876 49.4309 25.0886 49.4309H62.7822C63.6832 49.4309 64.4341 48.6753 64.4341 47.7686V40.364C64.4341 39.4573 63.6832 38.7017 62.7822 38.7017C61.1303 38.7017 59.4784 38.7017 57.6763 38.7017C55.4237 38.7017 53.6216 36.8883 53.6216 34.4705V28.8792C53.6216 25.1013 56.7752 24.7991 59.7787 24.7991ZM39.9558 16.3366H56.4749L53.3213 9.98976L39.9558 16.3366ZM59.3282 16.3366H64.4341V15.7321C64.4341 14.8255 63.6832 14.0699 62.7822 14.0699H58.1268L59.3282 16.3366ZM56.9254 11.5009H62.7822C65.0348 11.5009 66.8369 13.4654 66.8369 15.7321C66.8369 18.15 66.8369 20.719 66.8369 23.1368C66.8369 23.7413 66.8369 24.1946 66.5365 24.7991H67.4375C69.6902 24.7991 71.6424 26.6125 71.6424 28.8792V34.4705C71.6424 36.7372 69.6902 38.7017 67.4375 38.7017H66.5365C66.8369 39.155 66.8369 39.7595 66.8369 40.364V47.7686C66.8369 50.0354 65.0348 51.8487 62.7822 51.8487H25.0886C22.836 51.8487 20.8838 50.0354 20.8838 47.7686V15.7321C20.8838 13.4654 22.836 11.5009 25.0886 11.5009H44.1607L53.4714 7.11857C54.0721 6.81634 54.823 7.11857 55.1233 7.72303L56.9254 11.5009ZM67.4375 27.368C64.1337 27.368 60.9801 27.368 57.6763 27.368C56.7752 27.368 56.1745 27.9725 56.1745 28.8792V34.4705C56.1745 35.3772 56.7752 36.1327 57.6763 36.1327C60.9801 36.1327 64.1337 36.1327 67.4375 36.1327C68.3386 36.1327 69.0895 35.3772 69.0895 34.4705V28.8792C69.0895 27.9725 68.3386 27.368 67.4375 27.368Z" fill="#114965"/>
<path d="M60.6798 33.7149C61.758 33.7149 62.632 32.8354 62.632 31.7504C62.632 30.6654 61.758 29.7859 60.6798 29.7859C59.6016 29.7859 58.7275 30.6654 58.7275 31.7504C58.7275 32.8354 59.6016 33.7149 60.6798 33.7149Z" fill="#114965"/>
</svg>
