<svg width="80" height="80" viewBox="0 0 80 80" fill="none" xmlns="http://www.w3.org/2000/svg">
<g clip-path="url(#clip0_1339_962)">
<path fill-rule="evenodd" clip-rule="evenodd" d="M31.3327 11.9951C32.0692 11.9951 32.6661 11.3981 32.6661 10.6618C32.6686 9.91733 32.7391 9.17462 32.8767 8.44301C34.1621 8.26565 35.4583 8.13892 36.7437 8.06829C37.4802 8.02704 38.0436 7.39668 38.0024 6.66022C37.9611 5.92377 37.3308 5.36029 36.5943 5.40154C34.9236 5.49483 33.2327 5.67484 31.5699 5.93486C31.045 6.01721 30.6192 6.40333 30.4858 6.91759C30.1664 8.14017 30.0029 9.39823 29.999 10.6619C29.999 11.0155 30.1395 11.3548 30.3895 11.6048C30.6395 11.8548 30.9791 11.9951 31.3327 11.9951Z" fill="url(#paint0_linear_1339_962)"/>
<path d="M3.33057 70.6658C2.59411 70.6658 1.99719 71.2629 1.99719 71.9992C1.99719 72.7356 2.59427 73.3326 3.33057 73.3326H9.99775V75.9995C9.99775 78.2087 11.7888 79.9998 13.998 79.9998H64.6683C66.8775 79.9998 68.6686 78.2087 68.6686 75.9995V73.3326H76.6692C77.4056 73.3326 78.0025 72.7355 78.0025 71.9992C78.0025 71.2627 77.4056 70.6658 76.6692 70.6658H72.6689V67.9989H76.6692C77.4056 67.9989 78.0025 67.4018 78.0025 66.6655C78.0025 65.9291 77.4056 65.3322 76.6692 65.3322H72.6689V62.6653H76.6692C77.4056 62.6653 78.0025 62.0682 78.0025 61.3319C78.0025 60.5956 77.4056 59.9985 76.6692 59.9985H72.6689V57.3316H76.6692C77.4056 57.3316 78.0025 56.7347 78.0025 55.9982C78.0025 55.2618 77.4056 54.6648 76.6692 54.6648H72.6689V51.9979H76.6692C77.4056 51.9979 78.0025 51.401 78.0025 50.6646C78.0025 49.9281 77.4056 49.3312 76.6692 49.3312H72.6689V46.6641H76.6692C77.4056 46.6641 78.0025 46.0672 78.0025 45.3308C78.0025 44.5943 77.4056 43.9974 76.6692 43.9974H72.6689V41.3305H76.6692C77.4056 41.3305 78.0025 40.7336 78.0025 39.9971C78.0025 39.2606 77.4056 38.6637 76.6692 38.6637H68.6686V29.3298C68.6686 27.1206 66.8775 25.3295 64.6683 25.3295V14.6619C64.6683 11.7162 62.2803 9.32822 59.3347 9.32822H53.9302C53.7758 7.06666 53.2594 4.84447 52.4007 2.74636C52.0549 1.91395 51.3194 1.30672 50.4365 1.12484C43.1102 -0.375271 35.556 -0.375271 28.2297 1.12484C27.3468 1.30672 26.6113 1.91395 26.2655 2.74636C25.4071 4.84447 24.8907 7.0665 24.736 9.32822H19.3315C16.3859 9.32822 13.9979 11.7162 13.9979 14.6619V25.3293C11.7887 25.3293 9.9976 27.1204 9.9976 29.3296V38.6636H3.33057C2.59411 38.6636 1.99719 39.2606 1.99719 39.9969C1.99719 40.7332 2.59427 41.3303 3.33057 41.3303H5.99747V43.9972H3.33057C2.59411 43.9972 1.99719 44.5941 1.99719 45.3306C1.99719 46.0671 2.59427 46.664 3.33057 46.664H5.99747V49.3309H3.33057C2.59411 49.3309 1.99719 49.9278 1.99719 50.6643C1.99719 51.4007 2.59427 51.9976 3.33057 51.9976H5.99747V54.6645H3.33057C2.59411 54.6645 1.99719 55.2615 1.99719 55.9979C1.99719 56.7344 2.59427 57.3313 3.33057 57.3313H5.99747V59.9982H3.33057C2.59411 59.9982 1.99719 60.5951 1.99719 61.3316C1.99719 62.068 2.59427 62.6649 3.33057 62.6649H5.99747V65.3318H3.33057C2.59411 65.3318 1.99719 65.9289 1.99719 66.6652C1.99719 67.4017 2.59427 67.9986 3.33057 67.9986H5.99747V70.6655H3.33057V70.6658ZM8.66438 41.3305H16.6649V49.331H8.66438V41.3305ZM48.6672 41.3305V49.331H40.6666V41.3305H48.6672ZM59.3345 41.3305V49.331H51.3339V41.3305H59.3345ZM70.002 70.6658H62.0014V62.6653H70.002V70.6658ZM29.9992 70.6658V62.6653H37.9997V70.6658H29.9992ZM19.3317 70.6658V62.6653H27.3323V70.6658H19.3317ZM8.66438 51.9979H16.6649V59.9985H8.66438V51.9979ZM19.3317 51.9979H27.3323V59.9985H19.3317V51.9979ZM37.9997 59.9985H29.9992V51.9979H37.9997V59.9985ZM40.6666 51.9979H48.6672V59.9985H40.6666V51.9979ZM40.6666 62.6653H48.6672V70.6658H40.6666V62.6653ZM51.3339 62.6653H59.3345V70.6658H51.3339V62.6653ZM70.002 59.9985H62.0014V51.9979H70.002V59.9985ZM59.3345 59.9985H51.3339V51.9979H59.3345V59.9985ZM37.9997 49.331H29.9992V41.3305H37.9997V49.331ZM27.3323 49.331H19.3317V41.3305H27.3323V49.331ZM8.66438 62.6653H16.6649V70.6658H8.66438V62.6653ZM66.0017 75.9996C66.0017 76.7361 65.4046 77.333 64.6683 77.333H13.998C13.2616 77.333 12.6647 76.7359 12.6647 75.9996V73.3327H66.0017V75.9996ZM70.002 49.331H62.0014V41.3305H70.002V49.331ZM28.763 3.73846C35.7455 2.30679 42.9463 2.31086 49.9271 3.75049C50.8391 5.92814 51.3196 8.26221 51.3419 10.623C51.3419 10.6363 51.3339 10.6483 51.3339 10.6616C51.3339 10.6749 51.3419 10.6869 51.3419 10.7002C51.3202 13.0593 50.8402 15.3915 49.9285 17.5674C49.9223 17.5758 49.9134 17.5819 49.9032 17.5847C42.9207 19.0162 35.72 19.0122 28.7391 17.5727C27.8271 15.3911 27.3493 13.0527 27.3323 10.6882C27.3323 10.6788 27.3323 10.6708 27.3323 10.6614C27.3323 10.6521 27.3323 10.6441 27.3323 10.6347C27.3544 8.26487 27.8406 5.92189 28.763 3.73846ZM16.6649 14.6619C16.6649 13.189 17.8589 11.995 19.3318 11.995H24.7363C24.8919 14.2569 25.4096 16.479 26.2697 18.5768C26.6147 19.4082 27.3485 20.0152 28.2298 20.1984C31.8837 20.9472 35.6035 21.3259 39.3333 21.3291C43.0627 21.3277 46.7827 20.9506 50.4367 20.2037C51.318 20.0205 52.0518 19.4136 52.3968 18.5822C53.2572 16.4826 53.7749 14.2586 53.9302 11.995H59.3347C60.8076 11.995 62.0016 13.189 62.0016 14.6619V25.3293H16.6649V14.6619ZM12.6647 29.3296C12.6647 28.5932 13.2617 27.9963 13.998 27.9963H64.6683C65.4048 27.9963 66.0017 28.5932 66.0017 29.3296V38.6636H12.6647V29.3296Z" fill="url(#paint1_linear_1339_962)"/>
</g>
<defs>
<linearGradient id="paint0_linear_1339_962" x1="34.0018" y1="5.39941" x2="34.0018" y2="11.9951" gradientUnits="userSpaceOnUse">
<stop stop-color="#60C0BC"/>
<stop offset="0.508333" stop-color="#4EB5E7"/>
<stop offset="1" stop-color="#7662A7"/>
</linearGradient>
<linearGradient id="paint1_linear_1339_962" x1="39.9999" y1="-0.000244141" x2="39.9999" y2="79.9998" gradientUnits="userSpaceOnUse">
<stop stop-color="#60C0BC"/>
<stop offset="0.508333" stop-color="#4EB5E7"/>
<stop offset="1" stop-color="#7662A7"/>
</linearGradient>
<clipPath id="clip0_1339_962">
<rect width="80" height="80" fill="white"/>
</clipPath>
</defs>
</svg>
