<svg width="123" height="123" viewBox="0 0 123 123" fill="none" xmlns="http://www.w3.org/2000/svg">
<g clip-path="url(#clip0_1339_3316)">
<path d="M91.1058 89.0701C90.1758 89.4936 89.2204 89.8913 88.242 90.2862C87.8445 90.4466 87.4416 90.6071 87.0345 90.7692C84.4394 91.8028 81.678 92.9027 79.1128 94.4701C79.0561 94.448 78.9989 94.42 78.9461 94.3882C78.9384 94.3836 78.9309 94.379 78.9238 94.3744C79.0704 93.671 79.13 93.0205 79.1092 92.4104L79.1089 92.4023L79.1086 92.3942C79.0537 91.0934 78.6078 90.0158 77.8394 89.1738C77.1202 88.3858 76.2269 87.9256 75.4889 87.6155C75.0808 87.444 74.5202 87.2462 74.0604 87.084C73.9719 87.0527 73.8871 87.0228 73.8079 86.9947C73.9357 86.9232 74.0686 86.8532 74.2212 86.7728C74.365 86.697 74.5263 86.6121 74.7172 86.508C75.1825 86.2545 75.7783 85.9074 76.3145 85.4162L76.315 85.4158C77.1038 84.6927 77.6939 83.718 77.8516 82.4096L78.0779 80.5324L76.2165 80.2011C75.1258 80.007 74.0372 79.9025 73.0446 79.8072L72.9518 79.7983C71.9057 79.6979 70.9652 79.6044 70.0599 79.435C68.3076 79.1069 66.8066 78.5145 65.4556 77.1262L65.4541 77.1246C64.6589 76.3093 63.71 75.7568 62.617 75.6227C61.5436 75.4911 60.5884 75.7949 59.8238 76.2035C58.4232 76.9519 57.1967 78.3237 56.3372 79.2852L56.2929 79.3347L56.2903 79.3375C56.2057 79.4325 56.1218 79.5272 56.0384 79.6215L54.2593 76.9129C53.5596 75.8476 52.903 74.8946 52.289 74.0036C51.0407 72.1919 49.9689 70.6362 49.0695 68.9129L49.0687 68.9115C47.1332 65.2099 43.9019 62.2526 40.2748 60.7949C36.6193 59.3258 32.4187 59.3459 28.8824 61.9062C25.1414 64.6083 21.4021 65.2158 17.4952 65.0417C15.5098 64.9532 13.5036 64.6637 11.4079 64.3376C11.175 64.3013 10.9407 64.2646 10.7051 64.2277C8.8546 63.9374 6.92708 63.6351 5.00615 63.4731C3.88875 63.3784 3.22247 62.9927 2.81152 62.5335C2.38337 62.0552 2.05632 61.2982 2.00102 60.1717C1.88767 57.8624 2.96032 54.4618 5.62771 50.7395L5.63018 50.7361C6.93009 48.9139 8.30889 47.3316 9.77916 46.5901L9.77916 46.5901L9.78654 46.5864C11.7857 45.5677 13.3546 44.1553 13.7968 42.1649C14.2344 40.1949 13.4147 38.3348 12.2763 36.7808C11.5384 35.7659 11.3091 35.1396 11.2563 34.8112C11.2196 34.5831 11.2619 34.5238 11.3207 34.4469C11.4452 34.2843 11.738 34.0352 12.3648 33.7156C12.9787 33.4026 13.7173 33.1158 14.6123 32.7699C19.142 31.0415 23.9068 31.2971 28.5775 32.4563C35.0879 34.0966 41.5973 34.9151 48.1333 35.4796L48.1376 35.4799C48.3219 35.4955 48.5081 35.5118 48.6959 35.5283C50.4155 35.6796 52.2737 35.843 54.0981 35.4686C56.2641 35.0241 58.2493 33.8767 60.2896 31.6313C61.2303 30.5965 63.027 29.9769 65.7692 29.5328C66.7245 29.3781 67.7005 29.2562 68.719 29.129C69.1121 29.0798 69.5116 29.0299 69.9187 28.977C71.3415 28.7922 72.8246 28.5742 74.2171 28.2323C75.6827 27.8736 76.5253 27.9893 77.0325 28.1849C77.5336 28.3781 77.9639 28.7469 78.4267 29.4052C78.8046 29.9429 79.1116 30.5264 79.4869 31.2398C79.6139 31.4813 79.7487 31.7376 79.8968 32.0121C80.4319 33.004 81.1192 34.1805 82.1333 35.1496C83.001 35.9831 83.8364 36.9402 84.7679 38.0075C84.9239 38.1862 85.0826 38.368 85.2446 38.5528C86.3437 39.8071 87.5651 41.1639 88.97 42.3824C91.8451 44.8759 95.512 46.805 100.711 46.5497L100.714 46.5496C103.603 46.4038 106.653 47.2812 110 48.585C111.094 49.011 112.247 49.496 113.43 49.9935C115.693 50.9457 118.067 51.944 120.345 52.664M91.1058 89.0701L117.215 65.4748C117.216 65.4746 117.216 65.4745 117.217 65.4743C118.492 64.9883 118.91 64.4311 119.102 63.9925C119.343 63.4399 119.396 62.6951 119.318 61.5406C119.302 61.3066 119.279 61.0423 119.254 60.7575C119.173 59.8414 119.073 58.7134 119.144 57.7018C119.243 56.2812 119.675 54.725 120.992 53.426M91.1058 89.0701C90.6469 88.9941 90.1932 88.8799 89.7526 88.7174C87.8877 88.03 86.5036 86.5744 85.8445 84.2954C85.4755 83.0195 85.566 81.8168 86.0342 80.7621C86.4841 79.7487 87.2197 79.0103 87.926 78.4894C89.2976 77.4778 90.9201 77.0193 91.6431 76.882L91.1058 89.0701ZM120.345 52.664C120.344 52.6639 120.344 52.6638 120.344 52.6637L120.948 50.7573L120.346 52.6643C120.345 52.6642 120.345 52.6641 120.345 52.664ZM120.345 52.664C120.649 52.7609 120.79 52.8806 120.855 52.9513C120.923 53.0258 120.963 53.1083 120.984 53.1994C121.003 53.2847 121.001 53.3662 120.992 53.426M120.992 53.426C120.99 53.4366 120.988 53.4464 120.986 53.4555C120.983 53.4648 120.981 53.4719 120.98 53.4772M120.992 53.426C121.033 53.3849 121.076 53.3441 121.119 53.3035L120.98 53.4772M120.98 53.4772C120.976 53.4841 120.975 53.4879 120.975 53.4882C120.976 53.4885 120.977 53.485 120.98 53.4772Z" stroke="url(#paint0_linear_1339_3316)" stroke-width="4"/>
</g>
<defs>
<linearGradient id="paint0_linear_1339_3316" x1="61.4957" y1="26" x2="61.4957" y2="96.5166" gradientUnits="userSpaceOnUse">
<stop stop-color="#60C0BC"/>
<stop offset="0.508333" stop-color="#4EB5E7"/>
<stop offset="1" stop-color="#7662A7"/>
</linearGradient>
<clipPath id="clip0_1339_3316">
<rect width="123" height="123" fill="white"/>
</clipPath>
</defs>
</svg>
