<svg xmlns="http://www.w3.org/2000/svg"><symbol viewBox="0 0 37 37" id="src-1">
<circle cx="18.5" cy="18.5" r="18.5"/>
<g clip-path="url(#clip0_151_4271)">
<path d="M22.2343 27C19.2541 27 16.0716 25.9049 13.5833 23.4167C11.0991 20.9325 10 17.7521 10 14.7657C10 12.1338 12.1294 10 14.7657 10C14.9694 10 15.1525 10.124 15.2282 10.3131L17.362 15.6477C17.4642 15.9031 17.34 16.1929 17.0846 16.2951L14.7406 17.2327C14.9064 19.9294 17.071 22.0939 19.7673 22.2595L20.7049 19.9154C20.8069 19.6605 21.0966 19.5358 21.3523 19.638L26.6869 21.7718C26.876 21.8475 27 22.0306 27 22.2343C27 24.8662 24.8706 27 22.2343 27Z" fill="#114965" style = "fill: var(--icon-color)"/>
</g>
<defs>
<clipPath id="clip0_151_4271">
<rect width="17" height="17" fill="white" transform="translate(10 10)"/>
</clipPath>
</defs>
</symbol><symbol viewBox="0 0 37 37" id="src-2">
<circle cx="18.5" cy="18.5" r="18.5" fill="#E2EAEF"/>
</symbol><symbol viewBox="0 0 22.999666 22.000668" id="src-3">
<path d="M14.3835 11L22.4911 3.24484C23.1696 2.59587 23.1696 1.49263 22.4911 0.843658L22.118 0.486726C21.4395 -0.162242 20.2861 -0.162242 19.6077 0.486726L11.5 8.24189L3.39233 0.486726C2.71386 -0.162242 1.56047 -0.162242 0.882006 0.486726L0.50885 0.843658C-0.169617 1.49263 -0.169617 2.59587 0.50885 3.24484L8.61652 11L0.50885 18.7552C-0.169617 19.4041 -0.169617 20.5074 0.50885 21.1563L0.882006 21.5133C1.56047 22.1622 2.71386 22.1622 3.39233 21.5133L11.5 13.7581L19.6077 21.5133C20.2861 22.1622 21.4395 22.1622 22.118 21.5133L22.4911 21.1563C23.1696 20.5074 23.1696 19.4041 22.4911 18.7552L14.3835 11Z"/>
</symbol><symbol viewBox="0 0 37 37" id="src-4">
<circle cx="18.5" cy="18.5" r="18.5"/>
<path d="M14.531 13.68C14.531 11.6533 16.3142 10 18.5 10C20.6858 10 22.469 11.6533 22.469 13.68C22.469 15.7067 20.6858 17.3333 18.5 17.3333C16.3142 17.3333 14.531 15.68 14.531 13.68ZM25 24.32C24.9425 21.1733 22.2102 18.5867 18.8164 18.4267C17.0332 18.3467 15.3075 18.9333 14.0133 20.08C12.719 21.2267 12 22.7733 12 24.4533C12 25.3067 12.7765 26 13.6969 26H23.3031C23.7633 26 24.1947 25.84 24.5111 25.5467C24.8274 25.2533 25 24.8533 25 24.4533V24.32Z" fill="#114965" style = "fill: var(--icon-color)"/>
</symbol><symbol viewBox="0 0 37 37" id="src-5">
<circle cx="18.5" cy="18.5" r="18.5"/>
<path d="M10.5382 12C10.334 12 10.1393 12.0406 9.96135 12.1122L18.5426 19.756C18.8417 20.0227 19.1736 20.0224 19.472 19.756L28.0372 12.1122C27.8592 12.0406 27.6645 12 27.4603 12H10.5382ZM9.0159 13.322C9.00615 13.3921 9 13.4655 9 13.5384V23.7942C9 24.0046 9.04438 24.2048 9.1202 24.3871L15.0413 18.6983L9.01602 13.322H9.0159ZM28.9827 13.322L22.9734 18.6903L28.8865 24.3791C28.9599 24.1993 28.9987 24.001 28.9987 23.7942V13.5384C28.9987 13.4655 28.9923 13.3921 28.9828 13.322H28.9827ZM21.8196 19.7239L20.4976 20.9097C19.6571 21.6603 18.3574 21.659 17.517 20.9097L16.195 19.7319L10.362 25.3245C10.419 25.331 10.4795 25.3325 10.5382 25.3325H27.4603C27.5163 25.3325 27.5742 25.3299 27.6286 25.3245L21.8196 19.7239Z" fill="#114965" style = "fill: var(--icon-color)"/>
</symbol><symbol viewBox="0 0 37 37" id="src-6">
<circle cx="18.5" cy="18.5" r="18.5"/>
<path d="M18.9964 10C15.1338 10.0037 12 13.1403 12 16.9916C11.9999 19.9429 13.8805 22.5282 16.6344 23.5274L18.0379 26.5643C18.3987 27.3454 19.6013 27.3454 19.9621 26.5643L21.3656 23.5274C24.1195 22.5282 26.0001 19.9429 26 16.9916C26 13.135 22.859 9.99624 18.9964 10ZM19.0001 13.3696C21.0227 13.3696 22.676 15.0223 22.676 17.0443C22.676 19.0662 21.0227 20.7178 19.0001 20.7178C16.9774 20.7178 15.3242 19.0662 15.3242 17.0443C15.3242 15.0223 16.9774 13.3696 19.0001 13.3696Z" fill="#114965" style = "fill: var(--icon-color)"/>
</symbol><symbol viewBox="0 0 37 37" id="src-7" >
<path fill-rule="evenodd" clip-rule="evenodd" d="M29.5545 10.7638C29.6645 10.7271 29.8112 10.8004 29.9579 11.0021C29.9579 11.0021 29.9579 11.0021 36.5958 17.4567C36.9809 17.8418 36.9809 18.4286 36.5958 18.722C36.5958 18.722 36.5958 18.722 29.9579 25.2866C29.8112 25.4699 29.6645 25.5249 29.5545 25.4699C29.4444 25.4149 29.3711 25.2315 29.3711 24.9932V11.1855C29.3711 10.9471 29.4444 10.8004 29.5545 10.7638Z" fill="#ED1C24"/>
<path fill-rule="evenodd" clip-rule="evenodd" d="M18.2032 0H18.68L19.1201 0.183369C19.1201 0.183369 19.1201 0.183369 25.9597 6.94968C26.2531 7.33475 26.1431 7.6098 25.6663 7.6098C25.6663 7.6098 25.6663 7.6098 22.8241 7.6098C22.3474 7.6098 21.9439 8.01321 21.9439 8.48997C21.9439 8.48997 21.9439 8.48997 21.9439 13.5143C21.9439 13.991 21.5589 14.3761 20.9721 14.3761C20.9721 14.3761 20.9721 14.3761 16.0028 14.3761C15.5077 14.3761 15.1226 13.991 15.1226 13.5143C15.1226 13.5143 15.1226 13.5143 15.1226 8.48997C15.1226 8.01321 14.7376 7.6098 14.2425 7.6098H11.2169C10.7218 7.6098 10.6301 7.33475 10.9235 6.94968C10.9235 6.94968 10.9235 6.94968 17.7631 0.183369L18.2032 0Z" fill="#ED1C24"/>
<path fill-rule="evenodd" clip-rule="evenodd" d="M7.51353 10.617C7.62356 10.6904 7.6969 10.8554 7.6969 11.0938V25.1765C7.6969 25.4332 7.62356 25.5799 7.51353 25.6166C7.38518 25.6716 7.22014 25.6166 7.01844 25.4699C7.01844 25.4699 7.01844 25.4699 0.288806 18.7219C-0.0962686 18.4286 -0.0962686 17.8418 0.288806 17.4567C0.288806 17.4567 0.288806 17.4567 7.01844 10.8004C7.22014 10.617 7.38518 10.562 7.51353 10.617Z" fill="#ED1C24"/>
<path fill-rule="evenodd" clip-rule="evenodd" d="M16.0047 21.7109C16.0047 21.7109 16.0047 21.7109 20.974 21.7109C21.5608 21.7109 21.9642 22.0959 21.9642 22.591C21.9642 22.591 21.9642 22.591 21.9642 27.8904C21.9642 28.4772 22.3493 28.8622 22.826 28.8622H25.4666C25.9616 28.8622 26.145 29.1373 25.7599 29.4307C25.7599 29.4307 25.7599 29.4307 19.122 36.087C18.9203 36.2887 18.6819 36.3804 18.4435 36.3804C18.2052 36.3804 17.9484 36.2887 17.7651 36.087C17.7651 36.087 17.7651 36.087 11.1271 29.4307C10.7237 29.1373 10.9254 28.8622 11.4022 28.8622C11.4022 28.8622 11.4022 28.8622 14.2444 28.8622C14.7395 28.8622 15.1246 28.4772 15.1246 27.8904C15.1246 27.8904 15.1246 27.8904 15.1246 22.591C15.1246 22.0959 15.5096 21.7109 16.0047 21.7109Z" fill="#ED1C24"/>
</symbol><symbol viewBox="0 0 37 37" id="src-8" >
<path d="M0 35.8892H14.0677V21.8215H0V35.8892Z" fill="#222221"/>
<path d="M0 0V17.5015H3.76615C13.5138 17.5015 18.4985 22.4862 18.4985 32.2338V36H36V0H0ZM28.4677 7.42154C28.4677 12.1846 28.4677 23.7046 28.4677 28.4677C27.1385 28.4677 26.9169 28.4677 25.5877 28.4677C24.3692 18.0554 17.8338 11.52 7.42154 10.3015C7.42154 8.97231 7.42154 8.75077 7.42154 7.42154C12.1846 7.42154 23.7046 7.42154 28.4677 7.42154Z" fill="#5DBA45"/>
</symbol><symbol viewBox="0 0 37 37" id="src-9" >
<path fill-rule="evenodd" clip-rule="evenodd" d="M29.5545 10.7638C29.6645 10.7271 29.8112 10.8004 29.9579 11.0021C29.9579 11.0021 29.9579 11.0021 36.5958 17.4567C36.9809 17.8418 36.9809 18.4286 36.5958 18.722C36.5958 18.722 36.5958 18.722 29.9579 25.2866C29.8112 25.4699 29.6645 25.5249 29.5545 25.4699C29.4444 25.4149 29.3711 25.2315 29.3711 24.9932V11.1855C29.3711 10.9471 29.4444 10.8004 29.5545 10.7638Z" fill="#ED1C24"/>
<path fill-rule="evenodd" clip-rule="evenodd" d="M18.2032 0H18.68L19.1201 0.183369C19.1201 0.183369 19.1201 0.183369 25.9597 6.94968C26.2531 7.33475 26.1431 7.6098 25.6663 7.6098C25.6663 7.6098 25.6663 7.6098 22.8241 7.6098C22.3474 7.6098 21.9439 8.01321 21.9439 8.48997C21.9439 8.48997 21.9439 8.48997 21.9439 13.5143C21.9439 13.991 21.5589 14.3761 20.9721 14.3761C20.9721 14.3761 20.9721 14.3761 16.0028 14.3761C15.5077 14.3761 15.1226 13.991 15.1226 13.5143C15.1226 13.5143 15.1226 13.5143 15.1226 8.48997C15.1226 8.01321 14.7376 7.6098 14.2425 7.6098H11.2169C10.7218 7.6098 10.6301 7.33475 10.9235 6.94968C10.9235 6.94968 10.9235 6.94968 17.7631 0.183369L18.2032 0Z" fill="#ED1C24"/>
<path fill-rule="evenodd" clip-rule="evenodd" d="M7.51353 10.617C7.62356 10.6904 7.6969 10.8554 7.6969 11.0938V25.1765C7.6969 25.4332 7.62356 25.5799 7.51353 25.6166C7.38518 25.6716 7.22014 25.6166 7.01844 25.4699C7.01844 25.4699 7.01844 25.4699 0.288806 18.7219C-0.0962686 18.4286 -0.0962686 17.8418 0.288806 17.4567C0.288806 17.4567 0.288806 17.4567 7.01844 10.8004C7.22014 10.617 7.38518 10.562 7.51353 10.617Z" fill="#ED1C24"/>
<path fill-rule="evenodd" clip-rule="evenodd" d="M16.0047 21.7109C16.0047 21.7109 16.0047 21.7109 20.974 21.7109C21.5608 21.7109 21.9642 22.0959 21.9642 22.591C21.9642 22.591 21.9642 22.591 21.9642 27.8904C21.9642 28.4772 22.3493 28.8622 22.826 28.8622H25.4666C25.9616 28.8622 26.145 29.1373 25.7599 29.4307C25.7599 29.4307 25.7599 29.4307 19.122 36.087C18.9203 36.2887 18.6819 36.3804 18.4435 36.3804C18.2052 36.3804 17.9484 36.2887 17.7651 36.087C17.7651 36.087 17.7651 36.087 11.1271 29.4307C10.7237 29.1373 10.9254 28.8622 11.4022 28.8622C11.4022 28.8622 11.4022 28.8622 14.2444 28.8622C14.7395 28.8622 15.1246 28.4772 15.1246 27.8904C15.1246 27.8904 15.1246 27.8904 15.1246 22.591C15.1246 22.0959 15.5096 21.7109 16.0047 21.7109Z" fill="#ED1C24"/>
</symbol>
</svg>